<?xml version="1.0" encoding="UTF-8"?>
<svg id="Layer_1" data-name="Layer 1" xmlns="http://www.w3.org/2000/svg" viewBox="0 0 1642.33 1447.26">
  <defs>
    <style>
      .cls-1 {
        fill: #d7883f;
      }

      .cls-2 {
        fill: #6c6767;
      }

      .cls-3 {
        fill: #fee689;
      }

      .cls-4 {
        fill: #8d8d8d;
      }

      .cls-5 {
        fill: #fef7df;
      }
    </style>
  </defs>
  <path d="M1642.33,1260.48v5c0,12.15-6.01,22.62-14,32.06-22.24,26.3-64.14,42.67-96.86,49.91l-18.03,3.99-23.26,4.52-16.16,2.83-24.25,3.83-23.32,3.58-22.13,3.07-52.42,7.36-32.37,4.66-12.07,1.24c-7.97.82-15.47,2.94-23.49,3.29-5.01.22-9.74,1.55-14.62,2.19l-31.81,4.21c-2.94.39-6.14.71-9.01.82-5.28.21-9.86,1.61-15.06,2.06l-11.87,1.02-11.92.94c-4.04.32-6.39,1.27-9.84,2.47-11.94,4.13-24.68,3.29-37.16,4.14l-14.11.96c-21.55,1.46-38.97,2.01-60.85,3.59l-11.19.81c-3.55.26-7.26,1.04-10.82,1.14-6.54.2-12.56.55-18.99.97l-15.97,1.06-16.58.63-32.9.98c-12.16.36-24.27,1.26-36.57.33l-13.88-1.05-13.79-2.41c-17.53,17.96-39.72,28.26-63.55,34.51-9.66,2.53-17.25,3.15-27.01-.4-7.62-2.77-16-4.55-23.88-8.04-13.29-5.87-25.56-12.82-35.78-23.73-6.49,1.85-19.95,2.41-26.96,2.46-5.19.03-9.92-.74-14.98-.86l-31.56-.76-27.76-1.09-18.52-.68c-.84-.03-28.7-1.71-29.18-1.75l-19.82-1.79-11.04-.96-16.96-.96-20.98-1.02-18.03-.95-13.08-.97c-12.72-.95-25.62-.25-37.74-4.53-3.16-1.12-5.63-1.86-9.08-2.13l-11.08-.86-12.93-1.05c-4.87-.4-9.06-1.85-14.02-2.09-8.49-.42-24.12-2.75-33.61-4.07l-21.86-3.04c-8.25-1.15-16.19-2.13-24.54-3.27l-41-5.56-22.68-3.24-31.44-4.34-28.8-4.09-44.86-7.08c-26.74-4.22-52.51-9.36-78.34-17.56-22.16-7.03-43.04-16.31-60.85-30.94-6.34-5.21-11.23-10.88-15.99-17.08-5.84-7.6-7.96-15.52-8.83-24.27v-10.99c1.09-9.22,3.35-17.03,8.42-24.81,20.4-31.24,61.05-55.12,95.12-69.52,17.63-7.45,34.62-14.21,52.67-20.22l27.11-9.03,16.75-7.11c19.58-8.31,29.47-11.08,48.35-27.76,48.2-42.56,73.43-104.58,87.36-166.15,1.34-5.93,2.55-11.5,3.58-17.43l4.13-23.72,4.13-32.94.91-12.01,1.03-12,.92-11.1.52-21.78c.1-4.04,1.23-7.91.76-12.08-.52-4.63,2.55-34.2,2.73-41.09l.48-18.79c.09-3.7,1.28-7.25.81-11.07-.19-1.55,1.42-28.52,1.79-30.99,1.09-7.2-.81-14.48.68-21.51.37-1.77.96-23.73,1.63-30.54l1.75-17.84c.47-4.8.43-9.25.99-14l3.2-27.07,4.1-27.99c2.27-15.53,5.14-30.62,8.84-45.77l3.78-15.49c19.95-81.76,58.03-163.02,114.64-225.98,32.48-36.12,74.45-68.01,118.47-88.12,22.14-10.11,51.01-13.96,75.22-15.82,1.09,1.28.05,1.39-1.24,1.9-.47,1.56.51,1.65,1.88,1.66,10.34.13,26.57,7.91,35.68,8.76,22.59-14.77,23.25-21.18,21.64-47.86l-1.21-20.01c-1.3-21.56.82-42.64,13.06-60.87,12.4-18.46,30.04-32.67,51.04-40.68,4.53-.92,11.98-.75,16.62-.09,20.93,7.62,38.53,21.68,51.02,39.66,8,11.52,11.8,23.63,14.23,37.1,1.68,9.28-.3,17.57-.92,27.03l-.91,13.9c-.53,8.07-.32,15.94-.17,24.03.24,12.99,12.91,22.31,22.52,28.6,15.33-5.48,30.8-10.83,47.28-11.49,7.45-.3,14.56,2.36,22.03,2.9,44.75,3.23,104.54,45.41,137.06,75.96,70.83,66.55,114.06,156.31,137.62,249.69,3.35,13.29,6.25,25.85,8.68,39.29l2.89,15.96,4.1,26.83,3.23,23.92c.48,3.56.66,7.35.95,10.96l1.04,13.03.9,11.11,1.17,9.84c.63,5.28.43,10.27.66,15.51l.95,22.05,1.06,18.85,1,20.97c.55,11.6.61,26.47,1.66,37.58l1.04,11c.41,4.32,1.34,8.44.8,12.97-.5,4.18.67,8.04.75,12.07l.43,20.81c.08,3.69,1.33,7.23.77,11.06-.62,4.19.51,8,.83,11.96l.97,12.02.89,14.99,1.79,12.4c3.18,21.96,5.25,38.83,10.34,60.9,7.37,31.95,17.29,62.37,31.98,91.8,13.61,27.27,31.33,51.47,53.95,71.9,13.32,12.03,33.32,24.9,50.74,29.31,4.22,1.07,7.65,4.01,11.77,5.39,29.34,9.81,58.08,19.46,86.63,32.02,25.09,11.04,48.2,24.15,69.01,41.97,5.31,4.54,9.79,9.43,14.46,14.5,10.56,11.47,15.46,24.86,18.45,39.55Z"/>
  <g>
    <path class="cls-4" d="M.33,1268.47c-.43-4.36-.45-7.16,0-10.99v10.99Z"/>
    <g>
      <g>
        <g>
          <path class="cls-2" d="M1493.44,1255.1c-46.4,46.53-297.08,68.28-367.27,72.77l-55.56,3.55c-40.26,2.58-79.82,3.11-119.97.39-9.2-.62-17.47-.49-27.22-.31-4.17-22.86-10.94-44.32-18.23-66.42-5.77-17.49-11.78-33.94-16.15-51.77-3.5-14.29-4.06-28.39-.06-42.5,1.12-3.95,1.69-7.77,1.83-11.88,6.21-.73,11.87.23,17.96.36l37.75.77,31.6.93,31.4,1.05c102.46,3.41,389.82,21.96,472.69,70.6,4.57,2.68,8.92,5.61,12.1,9.77s2.95,8.86-.88,12.71Z"/>
          <path class="cls-2" d="M536.48,1328.56l-64.12-5.61c-74.65-6.53-182.83-19.88-253.69-41.87-11.21-3.48-73.14-23.31-50.57-41.84,66.8-54.84,388.13-74.07,482.05-77.22l32.18-1.08,29.98-.84,38.34-.7c-.13,6.1,1.81,10.85,2.95,16.43,3.93,19.22-.47,36.05-5.95,54.52l-17.52,53.37c-5.2,15.85-9.27,31.33-12.09,47.62-16.35.13-31.67.24-47.52.67l-34.19.93-32.22.95c-8.23.24-15.14-.1-23.17-.9l-44.46-4.41Z"/>
        </g>
        <path class="cls-3" d="M450.89,1088.61l1.44,3.09c-2.36,20.11-5.47,40.02-9.33,59.74-.59,3.62-.04,5.33,1.67,5.15l1.48,2.05c-1.88.38-3.41.54-6.26.81-43.94,4.18-87.16,8.83-130.46,17.33l-42.71,8.37c-26.91,5.28-52.74,12.49-78.11,22.74-16.12,6.51-42.47,19.81-43,39.64s24.28,32.97,39.92,39.65c83.2,35.53,261.56,52.54,354.29,57.94,13.7.8,26.21-.29,39.37,2.29,12.84,2.52,25.5,3.52,38.79,3.36l51.97-.63,20.02-1c9.02-.45,17.71-1.35,26.92-.65.86,16.56,5.21,31.62,14.65,45.75-4.58,1.32-8.54,1.58-12.74,1.77-41.01,1.81-116.9-3.3-159.77-6.6-25.16-1.93-48.84-3.19-74.02-2.96l-105.48-15.54-103.77-14.12-118.05-17.78c-20.35-3.07-39.39-7.34-59.03-13-26.48-7.63-55.67-19.66-73.32-41.46-31.39-38.79,36.98-81.38,65.99-95.83,55.01-27.39,134.8-49.96,195.23-64.8,54.77-13.44,109.33-25.23,164.31-35.32Z"/>
        <path class="cls-1" d="M832.75,1426.78c-8.85,2.31-15.91,1.98-24.14-.07-22.76-5.64-42.99-17.02-57.81-35.31-11.11-13.71-17.49-30.11-16.58-48.05,1.3-25.67,17.51-70.17,25.81-95.73,10.35-31.33,18.01-55.78,6.66-88.88h108.21c-12.39,33.43-3.09,58.87,6.73,90.01,7.73,22.88,15.35,45.04,21.2,68.47,7.33,29.36,6.46,51.86-13.49,75.7-14.5,17.32-34.41,28.06-56.57,33.85Z"/>
      </g>
      <g>
        <path class="cls-3" d="M540.19,1148.6c-2.33-4.45-2.76-9.72-1.29-15.83,3.85-18.6,6.89-37.29,9.12-56.08-1.6-.07-2.56-.66-3.1-2.3,11.8-2.57,41.8-2.16,53.47-5.27,3.51-.94,5.55-3.83,5.62-7.07.21-8.96-22.26-8.35-27.78-8.32-.68-.39-1.66-1.08-1.49-1.61.99-2.94,9.82-24.08,11.03-24.68,14.33-2.48,26.93-8.71,39.36-15.78,5.83-1.4,11.62-2.78,17.37-4.16,2.24-55.36,5.25-111.02,9.04-166.98l2.11-80.88c-1.22-37.29-4.71-74.48-10.48-111.55l-61.93,4.46-8-1.91c-14.48,1.2-16.92-8.39-7.19-18.26,19.92-14.81,39.96-30.13,57.39-48.82.76-.82,6.61-10.09,6.37-10.67-15.88-31.03-23.21-64.78-28.01-98.94-4.09-14.4-6.72-29.05-7.88-43.95-.72-24.97-2.09-49.94-4.11-74.89,4.15-31.42,10.8-62.62,22.53-92.15l28.96-68.51c2.29-4.04,2.17-6.83-.35-8.37,37.04-10.48,54.98-3.6,90.77,6.31,11.02,3.05,20.43,7.47,31.16,12.1,5.4,2.33,15.88,5.57,19.69-.21,2.13-6.14-6.39-12.92-11.54-15.1l-24.9-10.56c22.14-15.51,22.68-34.31,20.87-59.33l-1.38-19.06c-1.41-19.46,1.18-37.41,13.09-53.19,10.74-14.22,25.3-24.29,42.1-31.03,34.27,14.04,61.33,44.26,54.94,83.23-.89,5.45-.57,10.68-1.09,16.05-2.31,23.79-2.85,48.01,20.26,63.03-10.59,6.78-37.94,11.49-36.35,25.89,3.29,5.18,13.44,3.2,18.78.73,18.46-8.54,36.5-14.67,56.22-19.03,10.16-2.25,19.7-5.52,30.11-6.52,25.9-2.48,52.03,8.13,74.36,20.44,32,17.64,60.14,40.05,85.49,66.44,70.77,73.66,110.02,174.39,127.91,273.8,6.64,36.9,10.73,73.02,12.54,110.4l4.06,83.96,3.01,50.76,1.02,22.13c2,43.29,5.87,85.81,15.48,128.28,6.94,31.6,16.68,61.46,30.2,90.64,15.04,32.45,34.85,59.89,61.66,85.85-59.18-14.52-115.36-26.85-173.84-36.22-33.23-5.33-65.43-10.9-98.75-13.3-4.02-.29-34.49-.2-34.42,3.34,5.19,1.33,10.61,1.59,16.03,2.07,12,1.06,22.83,3.71,34.67,6.14l99.56,20.44c96.09,19.73,232.51,49.48,320.02,90.64,21.76,10.23,41.64,22.43,59.29,38.59s31.45,40.2,12.87,62.16c-20.29,23.97-54.73,35.79-84.56,43.39-18.64,4.74-36.57,8.46-55.71,11.28l-121.89,17.96-90.54,12.32-104.7,15.44c-25.65-.03-50.01,1.12-75.81,3.13-31.33,2.44-146.75,10.32-169.96,5.39-3.1-.66,9.92-18.2,11.76-35.63l.5-4.74c.08-.75.41-1.15.8-1.54.26-.27.77-.29,1.42.43,14.78.12,29.31-.03,44.18-.48l32.18-.96,44.96-1.92c100.8-4.3,351.57-23.45,436.77-67.68,9.74-5.06,18.67-10.8,25.03-19.86,6.75-9.62,5.7-22.25-1.77-31.15-55.02-65.53-428.36-84.88-519.96-87.33l-37.2-1-37.35-.95h-166.33s-37.36.98-37.36.98l-37.76,1.1-25.54.83-41.43,2.13-23.05.94c-14,.57-27.71.35-41.33.57Z"/>
        <path class="cls-3" d="M476.11,1062.58c-45.18,7.09-90.09,15.16-135.07,25.86-24.35,5.79-47.2,12.82-70.49,21.36-2.68.98-5.2,2.24-8.6,1.44,22.24-20.35,40.21-43.71,54.34-70.43,34.52-65.29,49.58-148.22,52.41-221.29l.91-23.35,3.07-50.77,3.03-59.71.8-23.58,3.07-42.87c3.07-42.86,9.88-84.58,20.39-126.38,18.83-74.93,51.89-150.4,102.27-209.45,15.86-18.58,32.64-35.45,51.6-50.01l1.42,2.31c-21.85,47.06-44.05,97.48-53.63,151-6.71,37.49-10.96,77.24-9.79,115.23,5.64,78.51,21.23,155.22,37.69,233.91,8.68,46.18,14.9,92.5,13.14,139.47-1.88,50.09-12.67,94.56-27.35,139.43-2.44,2.36-5.49,4.07-9.16,5.13-5.16,2.91-20.18,11.45-23.38,15.19-4.37,5.1-6.29,20.63-6.68,27.52Z"/>
        <g>
          <path class="cls-5" d="M576.23,1053.73c-21.76.12-78.01,5.38-100.11,8.85-4.97,1.16.9-17.07,1.72-21.19.94-4.73,3.1-8.3,7.24-10.85l20.19-12.44,8.06-3.46,16.54-56.27c11.47-50.88,13.99-102.52,8.03-154.6-4.64-40.56-12.27-79.3-20.55-119.15-6.89-33.13-14-65.15-18.19-98.61l-4.27-34.13c-2.8-22.42-5.73-44.03-5.24-66.67.69-32.25,4-63.23,9.39-95.15,6.7-39.65,19.48-76.5,35.55-113.09l12.61-28.72c2.27-5.17,5.43-9.7,6.66-14.85,2.05-1.57,3.2-3.73,5.95-5.56l19.08-12.63c8.86-5.86,18.11-10.41,27.44-15.65,11.08-6.22,22.52-11.54,34.62-13.48,1.93-.31,3.67-.32,6.2-.5-2.57,3.99-2.93,7.17-4.41,10.67l-26.13,61.6c-13.22,31.16-20.21,63.47-24.8,97.31,2.22,21.85,2.82,42.64,3.6,64.46.52,14.47,1.72,28.44,5.63,42.41,3.27,11.69,4.66,22.73,6.51,34.74,4.11,26.73,12.89,51.71,24.1,76.03-2.83,4.63-4.42,9.91-8.15,13.8-13.63,14.22-28.39,26.72-44.23,38.4-6.55,4.83-20.8,13.03-16.37,20.51,1.36,2.29,3.95,3.09,7.1,3.78,4.31-2.08,8.22,1.57,12.14,1.28l62.41-4.57c4.76,31.39,8.59,61.67,10.51,92.73.78,12.57.69,24.18.38,36.51l-.96,39.08-.93,26.31-6.19,101.37-.93,21.25c-.42,9.66-1.76,34.28-1.41,42.4.33,7.67-12.26,3.49-22.03,9.27-11.48,6.81-22.97,12.15-36.22,14.04l-10.55,24.76Z"/>
          <path class="cls-5" d="M544.92,1074.39c1.44-.09,2.93.24,5.1.41-.26,26.31-10.62,46.57-9.84,73.8-31.63.51-63.03,3.77-94.04,10.04-1.39-.11-2.93.06-4.71-.51-1.16-5.47-.06-10.67,1.04-16.19,2.68-13.49,5.45-26.55,6.6-40.33.39-4.68.96-8.92,1.82-13,24.01-4.41,71.1-12.86,94.03-14.22Z"/>
        </g>
      </g>
    </g>
  </g>
</svg>