<?xml version="1.0" encoding="UTF-8"?>
<svg id="Layer_1" xmlns="http://www.w3.org/2000/svg" version="1.1" viewBox="0 0 2048 2048">
  <!-- Generator: Adobe Illustrator 30.2.1, SVG Export Plug-In . SVG Version: 2.1.1 Build 1)  -->
  <defs>
    <style>
      .st0 {
        fill: #985aa3;
      }

      .st1 {
        fill: #f68d1e;
      }

      .st2 {
        stroke-width: 61px;
      }

      .st2, .st3 {
        fill: none;
        stroke: #000;
        stroke-linecap: round;
        stroke-linejoin: round;
      }

      .st3 {
        stroke-width: 42px;
      }

      .st4 {
        fill: #49b763;
      }

      .st5 {
        fill: #3fbbeb;
      }

      .st6 {
        fill: #735ca7;
      }

      .st7 {
        fill: #c163a6;
      }

      .st8 {
        fill: #f05722;
      }

      .st9 {
        fill: #8dc64e;
      }

      .st10 {
        fill: #fcd106;
      }
    </style>
  </defs>
  <rect class="st3" x="571.26" y="813.44" width="931.12" height="931.12"/>
  <path class="st8" d="M396.87,928.17l4.85-1.59c398.74-13.46,800.47-28.37,1205.19-44.72l5.97,2.97c4.58,5.57,10.01,9.39,14.7,14.87l134.58,157.24-67.12-5.07-268.99,5.46c-3.66-.22-25.17-1.55-26.23,0-1.41,2.05-24.74-16.11-24.8-10.97l-330.95.23-383.13-.21h0c-2.05-7.46-14.28,10.48-22,10.94h-353.1l111.02-129.15Z"/>
  <path class="st1" d="M1612.88,884.82c-16.83,2.27-33.52,1.63-52.22,2.36l-518.38,20.09-55.82,1.8-230.33,9.15-94.68,3.61-55.03,1.75-144.62,5.69-61.67.97c-1.76.03-3.79-.78-3.27-2.07l100-116.18c3.94-2.11,8.26-3.24,12.97-3.39,332.72-14.17,667.49-27.17,1004.3-39.02l2.88,1.77,53.25,61.62,42.62,51.84Z"/>
  <path class="st10" d="M1442.31,685.83l74.71,85.53c-2.47,1.98-4.84,1.51-9.62,1.7l-870.27,33.36-127,5.81c-4.86.22-9.75,2.75-13.25-.23l79.81-93.03,8.01-4.6c284.38-11.21,567.98-21.89,850.78-32.02l6.83,3.48Z"/>
  <path class="st4" d="M1307.72,528.03c25.46,30.46,51.35,59.28,76.17,88.66l-1.6,3.7c-247.87,9.04-494.71,18.67-740.5,28.89l-2.84-3.49,72.31-84.95c3.75-4.4,8.3-9.25,11.45-12.9,192.24-8.33,384.92-16.09,578.06-23.28l6.95,3.37Z"/>
  <path class="st9" d="M1383.89,616.69l58.42,69.15-47.16,1.12-788.89,30.26c-11.37.44-20.01.2-29.57,1.75l62.27-73.18,43.47-2.38,701.47-26.73Z"/>
  <path class="st5" d="M1260.17,471.16l47.54,56.87-579.74,22.68c-3.39.13-4.82-1.21-5.27-2.77l48.47-56.31c9.22-4.86,19.81-6.78,31.76-5.78l449.78-17.61,7.45,2.93Z"/>
  <path class="st6" d="M1205.98,409.71c18.3,18.32,38.11,42.22,54.19,61.45-20.28,2.25-39.85,2.07-61.62,2.92l-381.94,14.87c-16.27.63-30.53,1.05-45.43,2.67l48.89-58.27c3.49-4.17,6.94-8.35,10.97-10.63l5.76-1.77,364.08-14.68,5.11,3.43Z"/>
  <path class="st7" d="M1152.98,345.93c3.95,5.81,3.66,6.63-2.92,8.4l-260.66,9.97c-4.34.27-6.14-1.62-3.56-5.31l108.95-129.27c10.66-12.47,21.22-23.08,30.26-36.59l21.76,28.29,106.16,124.5Z"/>
  <path class="st0" d="M1205.98,409.71l-372.51,15.02c-2.06.08-3.2-.86-2.43-2.01l40.11-47.48c4.98-5.9,8.63-12.63,14.7-16.24-.16.88.52,1.79,2.26,1.72l262-10.02c1.74-.07,3.02-1.23,3.32-1.89.32-.69-.21-2.23-.44-2.88,5.04,5.91,9.98,9.43,14.16,15.42,12.09,17.34,28.36,30.88,38.84,48.36Z"/>
  <polygon class="st3" points="285.84 1057.32 1025.06 193.14 1762.16 1056.93 285.84 1057.32"/>
  <rect class="st3" x="901.03" y="1331.44" width="270.91" height="413.12"/>
  <ellipse class="st2" cx="1090.7" cy="1538" rx="8.18" ry="9.99"/>
</svg>