<?xml version="1.0" encoding="UTF-8"?>
<svg id="Layer_1" xmlns="http://www.w3.org/2000/svg" version="1.1" viewBox="0 0 2048 2048">
  <!-- Generator: Adobe Illustrator 30.2.1, SVG Export Plug-In . SVG Version: 2.1.1 Build 1)  -->
  <defs>
    <style>
      .st0 {
        fill: #fed306;
      }

      .st1 {
        fill: #735ca8;
      }

      .st2 {
        fill: #c263a7;
      }

      .st3 {
        fill: #995aa4;
      }

      .st4 {
        fill: #f15722;
      }

      .st5 {
        fill: #8ec74e;
      }

      .st6 {
        fill: #f78e1e;
      }

      .st7 {
        fill: none;
        stroke: #000;
        stroke-miterlimit: 10;
        stroke-width: 61px;
      }

      .st8 {
        fill: #3fbced;
      }
    </style>
  </defs>
  <polygon class="st4" points="1364.42 699.31 1806.19 1010.02 1879.3 939.21 1859.37 365.4 1794.83 333.33 1257.1 475.38 1218.09 569.3 1364.42 699.31"/>
  <polyline class="st6" points="1410.23 733.72 1290.38 904.13 1475.29 1037.9 1602.45 843.85"/>
  <polyline class="st0" points="1288.83 899.1 1168.98 1069.52 1353.9 1203.29 1481.05 1009.23"/>
  <polyline class="st5" points="1168.98 1069.52 973.89 1293.23 1155.71 1424.72 1342.34 1192.64"/>
  <polyline class="st8" points="1108.21 1139.08 868.72 946.89 739.92 1139.78 987.74 1322.91"/>
  <polyline class="st3" points="503.95 1515.41 688.12 1219.79 510.9 1127.49 317.38 1399.22"/>
  <polyline class="st2" points="299.1 1738.27 493.05 1463.98 315.83 1371.69 169.21 1608.21"/>
  <polyline class="st1" points="689.32 1253.6 873.49 957.98 709.46 885.81 502.75 1137.41"/>
  <path class="st7" d="M1766.74,336.75c46.88-13.37,95.9,13.65,109.07,59.97,2.32,7.97,3.49,16.23,3.49,24.53l-.09,488.57c-.08,48.66-39.59,88.03-88.25,87.95-18.97-.03-37.43-6.19-52.63-17.56l-140.45-105.64-357.53,476.26c-43.14,57.39-122.53,73.16-184.33,36.61l-12.83-8.55-285.43-214.44-377.89,503.37c-35.92,47.9-101.36,60.47-151.99,31.48l-12.32-8.13c-47.24-35.49-60.72-100.57-31.48-151.91l8.13-12.32,434.26-578.38c43.12-57.47,122.61-73.25,184.41-36.61l12.74,8.55,285.34,214.35,301.25-401.16-140.88-105.81c-38.85-29.3-46.59-84.54-17.29-123.39,8.85-11.74,20.5-21.07,33.88-27.15l11.72-4.28,457.04-132.9,12.03-3.44h0Z"/>
</svg>