<?xml version="1.0" encoding="UTF-8"?>
<svg id="Layer_1" xmlns="http://www.w3.org/2000/svg" version="1.1" viewBox="0 0 1078.98 143.59">
  <!-- Generator: Adobe Illustrator 30.1.0, SVG Export Plug-In . SVG Version: 2.1.1 Build 136)  -->
  <defs>
    <style>
      .st0 {
        stroke-width: 23px;
      }

      .st0, .st1, .st2 {
        stroke: #231f20;
      }

      .st0, .st3 {
        fill: none;
      }

      .st0, .st3, .st2 {
        stroke-linecap: round;
        stroke-linejoin: round;
      }

      .st1 {
        fill: #fff;
        stroke-width: 3px;
      }

      .st3 {
        stroke: #fff;
        stroke-width: 12px;
      }

      .st2 {
        stroke-width: 15px;
      }
    </style>
  </defs>
  <line class="st2" x1="56.79" y1="69.48" x2="1018.26" y2="74.3"/>
  <g>
    <path class="st0" d="M992.87,112.09c17.09-15.95,26.5-25.43,43.59-41.38-17.09-9.4-34.19-18.8-51.28-28.21"/>
    <path class="st3" d="M992.87,112.09c17.09-15.95,26.5-25.43,43.59-41.38-17.09-9.4-34.19-18.8-51.28-28.21"/>
  </g>
  <g>
    <path class="st0" d="M74.74,106.35c-17.09-15.95-26.5-25.43-43.59-41.38,17.09-9.4,34.19-18.8,51.28-28.21"/>
    <path class="st3" d="M74.74,106.06c-17.09-15.95-26.5-25.43-43.59-41.38,17.09-9.4,34.19-18.8,51.28-28.21"/>
  </g>
  <g>
    <path class="st1" d="M209.77,31.22c1.09-.75,2.45-1.12,4.08-1.12,1.84,0,3.78.48,5.82,1.43,1.84.89,3.23,1.89,4.19,3.01.95,1.12,1.77,2.77,2.45,4.95.48,1.57.77,3.88.87,6.94.1,3.06.15,10.28.15,21.65,0,11.98-.07,19.28-.2,21.9-.14,2.62-.48,4.44-1.02,5.46-1.7,2.86-4.25,4.29-7.66,4.29-1.57,0-3-.34-4.29-1.02-.95-.48-1.62-.9-1.99-1.28s-.75-.88-1.12-1.53c-.38-.65-.61-1.8-.71-3.47-.1-1.67-.2-3.5-.31-5.51-.1-2.01-.19-5.12-.26-9.34l-.2-16.85-2.04,3.17c-1.91,3.06-4.08,5.53-6.54,7.4-2.45,1.87-4.77,2.81-6.94,2.81-2.04,0-3.78-.61-5.21-1.84-1.43-1.23-3.13-3.51-5.11-6.84l-2.76-4.7-.1,2.96c-.2,3-.41,8.58-.61,16.75l-.41,13.78-2.14,2.14c-2.04,1.9-4.26,2.86-6.64,2.86-.34,0-.99-.07-1.94-.2-1.23-.27-2.47-.95-3.73-2.04-1.26-1.09-2.13-2.21-2.6-3.37-.34-.75-.51-4.8-.51-12.15,0-8.1.19-16.73.56-25.88.37-9.15.8-14.52,1.28-16.08.54-1.9,1.48-3.47,2.81-4.7,1.33-1.23,2.91-1.97,4.75-2.25.68-.14,1.7-.2,3.06-.2,3.06,0,5.9.95,8.53,2.86,2.62,1.91,5.6,5.21,8.93,9.9,1.84,2.65,2.82,3.98,2.96,3.98s1.12-1.33,2.96-3.98c1.77-2.66,3.9-5.46,6.38-8.42,2.48-2.96,4.24-4.78,5.26-5.46Z"/>
    <path class="st1" d="M242.54,38.37c1.29-.68,2.76-1.02,4.39-1.02,3.54,0,6.09,1.36,7.66,4.08.82,1.36,1.33,3.74,1.53,7.15.2,2.86.6,4.85,1.17,5.97.58,1.12,1.51,1.68,2.81,1.68.61,0,1.16-.29,1.63-.87.48-.58,1.16-1.82,2.04-3.73,1.29-2.65,2.57-4.53,3.83-5.62,1.26-1.09,2.81-1.63,4.65-1.63,3.47,0,6.33,1.67,8.58,5,1.29,1.98,2.16,3.98,2.6,6.02.44,2.04.8,5.58,1.07,10.62.07,1.23.1,2.79.1,4.7,0,3.27-.27,6.16-.82,8.68-1.36,7.01-4.07,12.63-8.12,16.85-4.05,4.22-8.77,6.33-14.14,6.33-3.54,0-6.88-1.06-10.01-3.17-3.27-2.18-4.9-4.9-4.9-8.17,0-2.52.87-4.63,2.6-6.33,1.74-1.7,3.79-2.55,6.18-2.55,1.43,0,2.79.31,4.08.92,1.43.68,2.38.92,2.86.71.61-.27,1.31-1.21,2.09-2.81.78-1.6,1.31-3.11,1.58-4.54l.31-2.35h-6.13c-4.22,0-7.18-.44-8.88-1.33-4.36-2.18-7.71-5.43-10.06-9.75-2.35-4.32-3.52-9.45-3.52-15.37,0-2.11.44-4.03,1.33-5.77.88-1.74,2.04-2.98,3.47-3.73Z"/>
    <path class="st1" d="M324.13,29.69c1.23-.27,2.11-.41,2.65-.41,2.45,0,4.53.9,6.23,2.71,1.7,1.8,2.55,4.07,2.55,6.79,0,7.01-.1,13.48-.31,19.4-.2,5.92-.39,10.53-.56,13.84-.17,3.3-.25,5.29-.25,5.97,0,.34.02.65.05.92.03.27.05.51.05.71v.2c.2.55,2.93.82,8.17.82,3.4,0,5.65.07,6.74.2,1.09.14,2.08.44,2.96.92,2.86,1.77,4.29,4.32,4.29,7.66,0,3.54-1.57,6.23-4.7,8.07-1.36.82-5.04,1.29-11.03,1.43-.61,0-1.41.02-2.4.05-.99.03-1.65.05-1.99.05-3.13,0-5.82-.34-8.07-1.02-2.93-.95-5.14-2.01-6.64-3.17-1.5-1.16-2.76-2.79-3.78-4.9l-1.74-3.68v-15.72c.14-21.71.82-33.73,2.04-36.04,1.36-2.52,3.27-4.12,5.72-4.8Z"/>
    <path class="st1" d="M369.05,34.18c1.63-2.59,3.71-3.88,6.23-3.88,1.23,0,2.65.37,4.29,1.12,3.33,1.57,5,4.19,5,7.86,0,2.45-.7,4.51-2.09,6.18-1.4,1.67-3.18,2.64-5.36,2.91h-1.02c-2.38,0-4.36-.77-5.92-2.3-1.57-1.53-2.49-3.56-2.76-6.08,0-.2-.02-.42-.05-.66-.04-.24-.05-.42-.05-.56,0-1.23.58-2.76,1.74-4.59ZM372.12,52.66c1.36-.75,2.86-1.12,4.49-1.12,1.84,0,3.51.48,5,1.43,1.97,1.36,3.17,3,3.57,4.9.41,1.91.61,6.74.61,14.5s-.24,12.63-.71,14.8c-.48,2.18-1.67,3.95-3.57,5.31-1.36,1.02-3.1,1.53-5.21,1.53-1.84,0-3.37-.44-4.59-1.33l-.1-.1c-1.77-1.29-2.83-2.45-3.17-3.47-.55-1.63-.89-6.91-1.02-15.83v-7.66c0-3.47.07-5.72.2-6.74.14-1.02.48-1.97,1.02-2.86,1.02-1.56,2.18-2.69,3.47-3.37Z"/>
    <path class="st1" d="M416.74,30.4c1.9-1.02,4.05-1.53,6.43-1.53,2.79,0,5.48.68,8.07,2.04,2.59,1.36,4.6,3.2,6.02,5.51.82,1.36,1.23,2.89,1.23,4.59,0,2.04-.51,3.78-1.53,5.21-1.77,2.59-4.36,3.88-7.76,3.88-.95,0-2.18-.17-3.68-.51h-.1c-.82,0-1.5,3.54-2.04,10.62l-.41,5.92,2.35.41c2.18.34,4,1.41,5.46,3.22,1.46,1.8,2.2,3.83,2.2,6.08,0,.68-.04,1.19-.1,1.53-.27,1.5-1.17,2.98-2.71,4.44-1.53,1.46-3.08,2.33-4.65,2.6l-2.35.41-.2,4.7c-.07,2.45-.39,4.27-.97,5.46-.58,1.19-1.68,2.4-3.32,3.62-1.09.82-2.59,1.23-4.49,1.23-1.77,0-3.34-.41-4.7-1.23-1.57-.95-2.71-2.14-3.42-3.57-.71-1.43-1.14-3.57-1.28-6.43-.07-2.25-.2-3.66-.41-4.24-.2-.58-.65-.93-1.33-1.07-1.09-.27-2.3-1.07-3.62-2.4-1.33-1.33-2.2-2.57-2.6-3.73-.27-.82-.41-1.74-.41-2.76,0-3.81,1.87-6.54,5.62-8.17.88-.41,1.48-.7,1.79-.87.31-.17.61-.66.92-1.48.31-.82.48-1.67.51-2.55.03-.88.12-2.59.26-5.11.41-7.35,1.46-13.02,3.17-17,1.7-3.98,4.39-6.93,8.07-8.83Z"/>
    <path class="st1" d="M466.36,36.94c2.31-.95,4.93-1.43,7.86-1.43,2.04,0,3.52.1,4.44.31s2.33.78,4.24,1.74c7.21,3.68,10.82,9.12,10.82,16.34,0,4.49-2.23,8.49-6.69,12-4.46,3.51-9.58,5.26-15.37,5.26-2.11,0-3.17.31-3.17.92,0,.41.34.95,1.02,1.63,1.84,1.7,3.81,2.55,5.92,2.55,1.09,0,2.18-.2,3.27-.61,1.36-.48,2.65-.71,3.88-.71,2.04,0,3.88.82,5.51,2.45,1.77,1.77,2.65,3.74,2.65,5.92,0,1.77-.6,3.42-1.79,4.95-1.19,1.53-2.84,2.71-4.95,3.52-2.86,1.02-5.72,1.53-8.58,1.53-6.94,0-12.93-2.52-17.97-7.56-5.38-5.38-8.07-12.01-8.07-19.91,0-5.38,1.33-10.82,3.98-16.34,2.93-6.13,7.25-10.31,12.97-12.56ZM474.73,50.93c-.82-.41-1.36-.61-1.63-.61-.48,0-1,.39-1.58,1.17-.58.78-.87,1.52-.87,2.2s.31,1.24.92,1.69c.61.44,1.29.66,2.04.66.54,0,.99-.14,1.33-.41.61-.48.92-1.23.92-2.25,0-1.23-.38-2.04-1.12-2.45Z"/>
    <path class="st1" d="M532.63,30.81c1.5-.41,7.59-.61,18.28-.61h5.62c7.21,0,11.44.31,12.66.92,3.27,1.57,4.9,4.22,4.9,7.96,0,1.77-.44,3.4-1.33,4.9-1.84,3.06-5.21,4.59-10.11,4.59h-3.78l-.41,22.06c-.27,13.55-.68,21.38-1.23,23.48-.48,1.57-1.46,2.79-2.96,3.68-.2.14-.44.27-.71.41-1.57.88-3.1,1.33-4.59,1.33-3.13,0-5.58-1.36-7.35-4.08-.68-.95-1.07-2.45-1.17-4.49-.1-2.04-.15-8.68-.15-19.91v-22.46h-4.08c-2.52,0-4.53-.48-6.02-1.43-2.72-1.84-4.08-4.36-4.08-7.56,0-1.97.58-3.79,1.74-5.46,1.16-1.67,2.76-2.77,4.8-3.32Z"/>
    <path class="st1" d="M586.44,34.18c1.63-2.59,3.71-3.88,6.23-3.88,1.23,0,2.65.37,4.29,1.12,3.33,1.57,5,4.19,5,7.86,0,2.45-.7,4.51-2.09,6.18-1.4,1.67-3.18,2.64-5.36,2.91h-1.02c-2.38,0-4.36-.77-5.92-2.3-1.57-1.53-2.49-3.56-2.76-6.08,0-.2-.02-.42-.05-.66-.04-.24-.05-.42-.05-.56,0-1.23.58-2.76,1.74-4.59ZM589.5,52.66c1.36-.75,2.86-1.12,4.49-1.12,1.84,0,3.51.48,5,1.43,1.97,1.36,3.17,3,3.57,4.9.41,1.91.61,6.74.61,14.5s-.24,12.63-.71,14.8c-.48,2.18-1.67,3.95-3.57,5.31-1.36,1.02-3.1,1.53-5.21,1.53-1.84,0-3.37-.44-4.59-1.33l-.1-.1c-1.77-1.29-2.83-2.45-3.17-3.47-.55-1.63-.89-6.91-1.02-15.83v-7.66c0-3.47.07-5.72.2-6.74.14-1.02.48-1.97,1.02-2.86,1.02-1.56,2.18-2.69,3.47-3.37Z"/>
    <path class="st1" d="M618.91,38.98c1.63-.75,2.76-1.12,3.37-1.12,2.59,0,4.83.95,6.74,2.86.88.82,1.7,1.35,2.45,1.58.75.24,2.35.39,4.8.46,2.72.14,4.73.43,6.02.87,1.29.44,3.17,1.52,5.62,3.22.2.2.44.31.71.31.54,0,1.43-.58,2.65-1.74,4.36-3.95,8.78-5.92,13.27-5.92,1.29,0,2.48.14,3.57.41,3.95.89,7.06,2.77,9.34,5.67,2.28,2.89,4,7.06,5.16,12.51.54,2.93.82,5.65.82,8.17,0,.82-.07,2.93-.2,6.33-.2,5.72-.51,9.51-.92,11.38-.41,1.87-1.29,3.49-2.65,4.85-1.29,1.29-2.96,2.04-5,2.25-.14,0-.34.02-.61.05-.27.04-.48.05-.61.05-2.52,0-4.73-1.05-6.64-3.17l-1.53-1.53v-13.17c0-8.85-.2-13.61-.61-14.3-.27-.54-.51-.8-.71-.77-.2.04-.65.39-1.33,1.07-2.11,2.31-3.98,7.01-5.62,14.09-.95,4.29-1.77,7.05-2.45,8.27-1.63,2.79-4.12,4.19-7.45,4.19s-5.75-1.33-7.45-3.98c-.61-.82-.99-1.72-1.12-2.71-.14-.99-.24-2.98-.31-5.97-.14-7.69-.85-11.71-2.14-12.05h-.31c-1.7,0-3.1,5.89-4.19,17.67-.41,4.08-.87,6.81-1.38,8.17-.51,1.36-1.58,2.66-3.22,3.88-1.16.89-2.65,1.33-4.49,1.33-3.74,0-6.43-1.5-8.07-4.49-.68-1.36-1.02-4.97-1.02-10.82,0-4.49.03-8.41.1-11.74.14-10.55.26-16.69.36-18.43s.49-3.18,1.17-4.34c.95-1.5,2.25-2.62,3.88-3.37Z"/>
    <path class="st1" d="M710.91,36.94c2.31-.95,4.93-1.43,7.86-1.43,2.04,0,3.52.1,4.44.31.92.2,2.33.78,4.24,1.74,7.21,3.68,10.82,9.12,10.82,16.34,0,4.49-2.23,8.49-6.69,12-4.46,3.51-9.58,5.26-15.37,5.26-2.11,0-3.17.31-3.17.92,0,.41.34.95,1.02,1.63,1.84,1.7,3.81,2.55,5.92,2.55,1.09,0,2.18-.2,3.27-.61,1.36-.48,2.65-.71,3.88-.71,2.04,0,3.88.82,5.51,2.45,1.77,1.77,2.65,3.74,2.65,5.92,0,1.77-.6,3.42-1.79,4.95-1.19,1.53-2.84,2.71-4.95,3.52-2.86,1.02-5.72,1.53-8.58,1.53-6.94,0-12.93-2.52-17.97-7.56-5.38-5.38-8.07-12.01-8.07-19.91,0-5.38,1.33-10.82,3.98-16.34,2.93-6.13,7.25-10.31,12.97-12.56ZM719.28,50.93c-.82-.41-1.36-.61-1.63-.61-.48,0-1.01.39-1.58,1.17-.58.78-.87,1.52-.87,2.2s.31,1.24.92,1.69c.61.44,1.29.66,2.04.66.54,0,.99-.14,1.33-.41.61-.48.92-1.23.92-2.25,0-1.23-.38-2.04-1.12-2.45Z"/>
    <path class="st1" d="M753.89,30.3c1.29-.88,2.59-1.33,3.88-1.33.14,0,.39.02.77.05.37.03.66.05.87.05,2.38.14,4.22.92,5.51,2.35,1.77,1.77,2.66,4.19,2.66,7.25,0,1.91-.07,3.51-.2,4.8-.27,2.93-.48,12.05-.61,27.36-.07,10.42-.17,16.64-.31,18.69-.14,2.04-.55,3.57-1.23,4.59-1.84,2.59-4.32,3.88-7.45,3.88s-5.75-1.46-7.66-4.39c-.61-1.02-1-2.45-1.17-4.29-.17-1.84-.29-6.84-.36-15.01v-5.31c0-8.58.14-16.06.41-22.46.34-5.92.8-9.82,1.38-11.69.58-1.87,1.75-3.39,3.52-4.54Z"/>
    <path class="st1" d="M779.42,34.18c1.63-2.59,3.71-3.88,6.23-3.88,1.23,0,2.65.37,4.29,1.12,3.33,1.57,5,4.19,5,7.86,0,2.45-.7,4.51-2.09,6.18-1.4,1.67-3.18,2.64-5.36,2.91h-1.02c-2.38,0-4.36-.77-5.92-2.3-1.57-1.53-2.49-3.56-2.76-6.08,0-.2-.02-.42-.05-.66-.04-.24-.05-.42-.05-.56,0-1.23.58-2.76,1.74-4.59ZM782.48,52.66c1.36-.75,2.86-1.12,4.49-1.12,1.84,0,3.5.48,5,1.43,1.97,1.36,3.17,3,3.57,4.9.41,1.91.61,6.74.61,14.5s-.24,12.63-.71,14.8c-.48,2.18-1.67,3.95-3.57,5.31-1.36,1.02-3.1,1.53-5.21,1.53-1.84,0-3.37-.44-4.6-1.33l-.1-.1c-1.77-1.29-2.83-2.45-3.17-3.47-.55-1.63-.89-6.91-1.02-15.83v-7.66c0-3.47.07-5.72.2-6.74.14-1.02.48-1.97,1.02-2.86,1.02-1.56,2.18-2.69,3.47-3.37Z"/>
    <path class="st1" d="M811.17,36.73c1.63-.82,3-1.23,4.08-1.23,1.16,0,2.59.46,4.29,1.38,1.7.92,2.82,1.86,3.37,2.81.75,1.16,1.23,1.74,1.43,1.74.34,0,1.53-.51,3.57-1.53,2.31-1.16,4.76-1.74,7.35-1.74,5.58,0,10.31,2.11,14.19,6.33,2.93,3.06,5,6.79,6.23,11.18,1.22,4.39,1.9,10.23,2.04,17.51v2.14c0,4.63-.31,7.68-.92,9.14-.61,1.46-2.04,2.74-4.29,3.83-1.29.68-2.62,1.02-3.98,1.02-2.45,0-4.51-.97-6.18-2.91-1.67-1.94-2.5-4.34-2.5-7.2,0-.68.03-1.19.1-1.53.07-.41.1-1.12.1-2.14,0-5.79-.58-10.86-1.74-15.21-.34-1.36-.92-2.45-1.74-3.27-.41-.41-.75-.61-1.02-.61s-.85.41-1.74,1.23c-2.11,1.98-4.32,7.56-6.64,16.75-1.23,4.9-2.16,8.15-2.81,9.75-.65,1.6-1.52,2.91-2.6,3.93-1.7,1.63-3.54,2.45-5.51,2.45-1.23,0-2.65-.37-4.29-1.12-1.36-.61-2.28-1.16-2.76-1.63-.48-.48-.92-1.45-1.33-2.91-.41-1.46-.66-3.62-.77-6.48-.1-2.86-.22-6.81-.36-11.85v-1.43c-.27-12.25-.41-19.03-.41-20.32v-.92c.14-3.13,1.74-5.51,4.8-7.15Z"/>
    <path class="st1" d="M885.3,36.94c2.31-.95,4.93-1.43,7.86-1.43,2.04,0,3.52.1,4.44.31s2.33.78,4.24,1.74c7.21,3.68,10.82,9.12,10.82,16.34,0,4.49-2.23,8.49-6.69,12-4.46,3.51-9.58,5.26-15.37,5.26-2.11,0-3.17.31-3.17.92,0,.41.34.95,1.02,1.63,1.84,1.7,3.81,2.55,5.92,2.55,1.09,0,2.18-.2,3.27-.61,1.36-.48,2.65-.71,3.88-.71,2.04,0,3.88.82,5.51,2.45,1.77,1.77,2.66,3.74,2.66,5.92,0,1.77-.6,3.42-1.79,4.95-1.19,1.53-2.84,2.71-4.95,3.52-2.86,1.02-5.72,1.53-8.58,1.53-6.94,0-12.93-2.52-17.97-7.56-5.38-5.38-8.07-12.01-8.07-19.91,0-5.38,1.33-10.82,3.98-16.34,2.93-6.13,7.25-10.31,12.97-12.56ZM893.68,50.93c-.82-.41-1.36-.61-1.63-.61-.48,0-1,.39-1.58,1.17-.58.78-.87,1.52-.87,2.2s.31,1.24.92,1.69c.61.44,1.29.66,2.04.66.54,0,.99-.14,1.33-.41.61-.48.92-1.23.92-2.25,0-1.23-.38-2.04-1.12-2.45Z"/>
  </g>
</svg>