<?xml version="1.0" encoding="UTF-8"?>
<svg id="Layer_1" xmlns="http://www.w3.org/2000/svg" version="1.1" viewBox="0 0 960 848">
  <defs>
    <style>
      .st0 {
        fill: #fff;
      }
    </style>
  </defs>
  <path class="st0" d="M480.41,397.84c1.58,1.44,1.7-.48,2.21-1.28,3.85-5.95,6.97-14.73,10.53-21.26,18.98-34.85,41.13-68.68,63.99-101.07,62.62-88.7,178.33-229.51,288.17-253.76,81.81-18.06,99.79,38.83,97.5,107.44-1.64,49.21-7.16,102.8-11.98,152.09-7.34,75.06-8.9,144.07-73.68,193.8-49.83,38.25-116.57,47.63-177.88,41.38l28.83,7.45c117.59,31.26,183.9,118.35,88.53,223.76-62.19,68.73-152.71,125.03-231.23,42.25-44.47-46.89-57.53-100.4-81.27-157.38-.4-.96-1.91-6.37-3.72-4.71-18.49,53.49-38.98,110.48-76.07,154.14-78.78,92.73-172.27,38.93-238.68-34.8-91.05-101.1-35.24-184.18,78.3-220.03l39.54-10.66-26.3,2.02c-82.75,1.77-166.82-28.4-202.25-108.07-19.75-44.4-22.7-123.06-26.98-172.88-3.97-46.17-15.01-128.16-2.49-170.52,26-87.96,133.97-36.3,183.77-1.81,103.72,71.84,209.8,216.77,268.87,327.75.67,1.25,2.05,5.95,2.29,6.17Z"/>
</svg>
