<?xml version="1.0" encoding="UTF-8"?>
<svg id="Layer_1" data-name="Layer 1" xmlns="http://www.w3.org/2000/svg" viewBox="0 0 588.83 1061.47">
  <defs>
    <style>
      .cls-1 {
        fill: #fff;
      }
    </style>
  </defs>
  <path class="cls-1" d="M486.12,1061.41c-1.69.34-2.32-.83-3.2-1.92-7.36-9.11-16.33-26.33-22.76-37.01-55.3-91.82-107.08-185.82-161.92-277.92l-4.02-5.3-189.12,322.15c-2.03.43-2.53-1.43-3.3-2.75-7.69-13.1-15.46-32.71-22.07-47.04-27.13-58.76-52.04-118.55-79.73-177.06l177.53-297.95-.78-3.95c-41.02-80.06-105.33-171.61-100.65-265.52,2.72-54.47,37.37-125.33,59.36-175.96,4.37-10.08,17.28-43.39,23.33-49.51,53.75-54.41,191.3-51.88,253.45-13.48,20.47,12.64,21.59,17.94,31.06,38.98,16.47,36.65,32.34,74.35,46.98,111.77,9.93,25.38,19.3,50.5,21.95,77.98,9.73,100.99-59.08,192.9-100.86,279.13l177.46,298.83-102.74,226.54h.03ZM180.97,60.53c-.8,35.31,4.44,71.21,17.53,104,5.92-3.49,14.32-7.84,24.95-11.42,4.3-1.45,8.75-2.7,14.01-3.87,61.3-13.64,96.18-9.44,96.18-9.44,15.03,1.81,37.16,6.32,62.58,18.68h0s12.46-94.9,12.46-94.93c-7.48-1.73-18.94-4.27-33.01-6.85-63.72-11.73-110.48-19.79-157.89-1.87-8.94,3.38-22.04,9.24-36.79,19.65,0-4.65,0-9.29,0-13.94ZM153.41,164.56c-2.27-5.41-3.74-8.88-3.74-8.88h0c4.07-12.75-8.37,25.44-12.14,38.29,0,0-7.97,27.15-11.21,61.63-3.57,38.1,15.49,119.61,66.35,212.92,4.28,4.95,8.56,9.9,12.84,14.86,18.02-39.19,36.03-78.39,54.05-117.58-7.73-11.22-19.52-29.07-32.38-52-13.25-23.63-19.45-38.07-34.5-68.45-7.97-16.09-19.95-39.73-35.53-68.45-1.25-4.12-2.49-8.23-3.74-12.35ZM478.65,252.7c-12.59,22.22-46.1-89.07-38.29-83.02-11.45,26.97-21.94,39.16-42.29,82.17-12.76,26.97-53.32,111.64-120.4,227.86-47.73,82.69-119.96,200.55-220.46,341.79,1.56,9.34,3.11,18.68,4.67,28.02,11.83,23.66,23.66,47.31,35.49,70.97,3.74,4.3,7.47,8.61,11.21,12.91h0c113.47-168.63,125.05-186.45,143.57-215.21,28.82-44.72,67.74-106.65,112.3-182.45,0,0,95.68-123.62,95.25-243.73-.29-81.65-13.76-146.86-13.76-146.86-4.08-11.85,36.21,101.36,32.7,107.55ZM292.87,337.66l3.22-.91c14.21-23.52,28.42-47.56,42.61-72.12,11.06-19.14,21.84-38.14,32.35-56.98-1.03-2.64-2.95-6.52-6.6-9.95-6.12-5.75-13.62-6.91-17.74-7.47-47.25-6.39-72.5-9.81-103.66,4.67-5.97,2.77-15.1,7.57-25.29,15.49,9.48,14.84,9.54,14.93,9.54,14.93,5.06,7.92,21.36,35.48,65.57,112.33ZM476.52,971.86c16.19-47.31,32.37-94.63,48.56-141.94-12.94-24.54-98.99-187.7-98.99-187.7h0s-11.01-16.52-31.75-47.63c-7.55,5.87-8.32,6.47-8.4,6.53,0,0,0,0,0,0-18.21,14.29-41.09,70.04-41.09,70.04-4.44,10.83-8.02,19.65-10.27,25.21,47.31,91.83,94.63,183.66,141.94,275.48Z"/>
</svg>