<?xml version="1.0" encoding="UTF-8"?>
<svg id="Layer_1" data-name="Layer 1" xmlns="http://www.w3.org/2000/svg" viewBox="0 0 1200 500">
  <defs>
    <style>
      .cls-1 {
        fill: #fff;
      }
    </style>
  </defs>
  <polygon class="cls-1" points="300 0 300 100 100 100 100 200 200 200 200 300 100 300 100 400 300 400 300 500 0 500 0 0 300 0"/>
  <g>
    <path class="cls-1" d="M500,400c-33.32-.04-66.68.03-100,0V100h100c.08,99.98-.11,200.02,0,300,33.32.04,66.68.04,100,0,.11-99.98-.08-200.02,0-300h100v300c-33.32.03-66.68-.04-100,0-.04,33.32.03,66.68,0,100h-100c-.03-33.32.04-66.68,0-100Z"/>
    <g>
      <path class="cls-1" d="M900,100V0h200v100c-66.65-.07-133.35-.07-200,0Z"/>
      <path class="cls-1" d="M900,100v100h200v-100c33.32.04,66.68-.03,100,0v200h-300v100c66.65.07,133.35-.05,200,0v100h-200v-100c-33.32-.04-66.68.03-100,0V100c33.32-.03,66.68.04,100,0Z"/>
    </g>
  </g>
</svg>