<?xml version="1.0" encoding="UTF-8"?>
<svg id="katman_1" data-name="katman 1" xmlns="http://www.w3.org/2000/svg" viewBox="0 0 495.47 59.89">
  <defs>
    <style>
      .cls-1 {
        fill: #e55725;
      }

      .cls-2 {
        fill: #fff;
      }
    </style>
  </defs>
  <circle class="cls-2" cx="29.82" cy="29.62" r="29.62"/>
  <path class="cls-1" d="M19.87,32.62c.5-.8.8-1,.8-1l-2.3-1.3c-.3.5-.5,1-1,1.5,1,.1,1.7.6,2.5.8ZM56.77,17.12l-1,.8c-1.5,1.3-4.3,3.3-7.3,5.5h0c-5.5,4.3-12.1,9-12.1,9,1.5,1,6,3.8,7.5,5l1.5-1.5c.5-.5,1-1,1.5-.8,1,.3,1.5,1,2,1.8l.3,1,2-.5h1.3c.2,0,.5,0,.5.3.3,0,.5.3.5.3.3,0,.3.3.3.5v.3q0,.3-.3.3l-3.3,2.3h-.3c0,.3.3.3,0,.5h-.8c-.3,0-.3.3-.5.3l-2.3,1.3h-1l-.5.3-.5-.3-.3-.3h0l.5-2-.8-.3h0l-14.1-4s-10.5,4-11.1,4.3c-.5.3-1,.3-1.5,0-.8-.3-1.3-.8-.8-2,.5-1,1-2.3,1.5-3.3-.8-.8-1.5-1.3-2-2-.5.8-1.3,1.5-2,2,.3-1.3,1-2.3,1.8-3.3-.3-.3-.3-.5-.3-.5.3-.3.5-.3.8,0,.5-.8,1-1.3,1.8-2-5.8-4-6.8-6.3-6.3-7,.5-.8,3.3,0,3.3,0,0-.3.3-.3.5-.3,2.5.3,4.8,1,6.8,2.3.8-1,1.3-1.8,2-2.8v-1c.3-.3.8-.3,1,0,1-1.5,2.3-2.5,3.5-3.3-.3,1.3-.8,2.3-1.8,3.3,2,.8,3.8,1.8,5.5,2.8l15.6-7.3c.5-.3,2.3-1.3,4.3-2l2.5-1.3C45.67-.28,27.07-3.78,13.27,5.22S-4.03,32.82,4.97,46.62c9,13.8,27.6,17.3,41.4,8.3,12.4-8.5,16.7-24.5,10.4-37.8ZM23.17,25.32c1.5.8,2.8,1.5,2.8,1.5l1.3-.5c-.8-.8-1.8-1.8-2.3-2.8-.8,1.1-1.3,1.6-1.8,1.8Z"/>
  <path d="M93.47,17.12l-.5,4.3h-8.3v5.8h6.5v4.3h-6.5v11.3h-5.3v-25.6h14.1v-.1Z"/>
  <path d="M105.27,17.12v16.8c0,1,0,2,.5,3,.8,1.3,2,2,3.5,1.8,2,.3,3.8-1,4-3h0v-18.6h5.3v17.3c.3,1.3,0,2.8-.5,4-.8,2-3.3,4.8-8.8,4.8-3.3.3-6.3-1-8.3-3.5-1-1.5-1.3-3.3-1-4.8v-17.8h5.3Z"/>
  <path d="M132.37,17.12v21.4h9.3l-1,4.3h-13.6v-25.6h5.3v-.1Z"/>
  <path d="M153.77,17.12v21.4h9l-1,4.3h-13.6v-25.6c.3-.1,5.6-.1,5.6-.1Z"/>
  <path d="M196.17,22.62c-1.8-1.3-3.8-2-6-2-1.8-.3-3.3,1-3.5,2.8v.3c0,1.3.8,2,2.8,2.5l3,1c3.8.5,6.5,3.8,6.5,7.5,0,5.3-4.3,8.5-10.5,8.5-3,0-6-.8-8.8-2.3l2-4c2.3,1.3,4.5,2,7,2,3,0,4.5-1.3,4.5-3.5,0-1.8-1.5-3-3-3.3l-2.8-.8c-2-.3-3.8-1.5-5-3.3-.8-1.3-1-2.5-1-4,0-4.8,3.8-8,9.3-8,3,0,6,.8,8.5,2.5l-3,4.1Z"/>
  <path d="M216.07,17.12l8,25.9h-5.5l-1.8-6h-7.5l-1.8,6h-5.3l8.3-25.9h5.6ZM215.57,32.42s-.8-2.8-1.3-5.3c-.3-1.3-1-4.5-1-4.5l-1.3,5c-.5,1.8-.8,3-1.3,4.8h4.9Z"/>
  <path d="M235.17,17.12v25.6h-5.5v-25.6h5.5Z"/>
  <path d="M249.17,17.12v21.4h9.3l-1,4.3h-13.6v-25.6h5.3v-.1Z"/>
  <path d="M280.37,17.12v16.8c0,1,0,2,.5,3,.8,1.3,2,2,3.5,1.8,2,.3,3.8-1,4-3h0v-18.6h5.3v17.3c.3,1.3,0,2.8-.5,4-.8,2-3.3,4.8-8.8,4.8-3.3.3-6.3-1-8.3-3.5-1-1.5-1.3-3.3-1-4.8v-17.8h5.3Z"/>
  <path d="M307.97,17.12l5,10.3c1,2.3,2,4.8,2.8,7.3-.3-2-.3-5.3-.5-7v-10.5h5v25.6h-5.5l-4.3-9.8c-1.5-3.3-3-6.8-3.5-8.5.3,2,.3,5,.3,7.3l.3,11.1h-5v-25.6h5.4v-.2Z"/>
  <path d="M334.37,17.12v25.6h-5.3v-25.6h5.3Z"/>
  <path d="M346.17,17.12l4.3,13.3c.3,1.3.8,2.5,1.3,4.5.5-1.8,1-3.3,1.5-5l4.3-12.8h5.5l-9,25.9h-4.8l-8.5-25.9h5.4Z"/>
  <path d="M383.87,17.12l-.5,4.3h-8.8v6h7.3v4.3h-7.3v6.8h9.8v4.5h-15.1v-25.9h14.6Z"/>
  <path d="M401.17,17.12c4-.3,7.3,2.8,7.5,6.8v.8c.3,3.5-2.3,6.5-5.8,7,.5.3.8.8,1,1,1.5,1.8,6.3,10,6.3,10h-6c-1-1.8-1.5-2.5-2.5-4.3-2.5-4.5-3.3-5.8-4.3-6.3-.3,0-.5-.3-.8-.3v10.8h-5v-25.6h9.6v.1ZM396.67,28.12h1.8c1.3.3,2.8,0,3.8-.8.8-.8,1-1.5,1-2.5.3-1.3-.5-2.5-1.8-3-1-.3-2-.5-3-.3h-1.8v6.6h0Z"/>
  <path d="M431.07,22.62c-1.8-1.3-3.8-2-6-2-1.8-.3-3.3,1-3.5,2.8v.3c0,1.3.8,2,2.8,2.5l3,1c3.8.5,6.5,3.8,6.5,7.5,0,5.3-4.3,8.5-10.5,8.5-3,0-6-.8-8.8-2.3l2-4c2.3,1.3,4.5,2,7,2,3,0,4.5-1.3,4.5-3.5,0-1.8-1.5-3.3-3.3-3.3l-2.8-.8c-2-.3-3.8-1.5-5-3.3-.8-1.3-1-2.5-1-4,0-4.8,3.8-8,9.3-8,3,0,6,.8,8.5,2.5l-2.7,4.1Z"/>
  <path d="M445.87,17.12v25.6h-5.3v-25.6h5.3Z"/>
  <path d="M470.77,17.12l-.8,4.3h-6v21.4h-5.3v-21.4h-6.3v-4.3h18.4Z"/>
  <path d="M480.07,17.12l3.3,7c.5,1,1,2.3,1.3,3.3.3-.8.8-2,1.5-3.3l3.3-7h6l-8.3,15.1v10.5h-5.4v-10.5l-8-15.1h6.3Z"/>
</svg>