<?xml version="1.0" encoding="UTF-8"?>
<svg id="Layer_1" xmlns="http://www.w3.org/2000/svg" version="1.1" viewBox="0 0 2048 2048">
  <!-- Generator: Adobe Illustrator 30.2.1, SVG Export Plug-In . SVG Version: 2.1.1 Build 1)  -->
  <defs>
    <style>
      .st0 {
        fill: #fed306;
      }

      .st1 {
        fill: #735ca8;
      }

      .st2 {
        fill: #c263a7;
      }

      .st3 {
        fill: #995aa4;
      }

      .st4 {
        fill: #080808;
      }

      .st5 {
        fill: #f15722;
      }

      .st6 {
        fill: #49b863;
      }

      .st7 {
        fill: #8ec74e;
      }

      .st8 {
        fill: #f78e1e;
      }

      .st9 {
        fill: #3fbced;
      }
    </style>
  </defs>
  <polygon class="st5" points="1376.16 1592.02 1546.84 1473.74 1652.98 1779.36 1635.38 1782.56 1376.16 1592.02"/>
  <polygon class="st3" points="1273.22 1657.08 1245.68 1565.08 1494.03 1381.49 1554.84 1479.1 1273.22 1657.08"/>
  <polygon class="st1" points="1551.5 1473.74 1487.64 1403.26 1606.11 1238.8 1688.08 1311.96 1551.5 1473.74"/>
  <polygon class="st9" points="1682.85 1311.09 1606.11 1238.8 1675.43 1071.61 1785.25 1131.88 1682.85 1311.09"/>
  <polygon class="st6" points="1775.65 1131.88 1675.43 1076.66 1695.68 899.33 1823.12 947.34 1775.65 1131.88"/>
  <polygon class="st7" points="1811.63 952.4 1694.58 901.47 1664.18 732.92 1801.79 738.79 1811.63 952.4"/>
  <polygon class="st0" points="1801.62 746.01 1674.21 738.11 1588.07 590.09 1719.41 548.6 1801.62 746.01"/>
  <polygon class="st8" points="1708.55 553.74 1591.11 598.52 1442.83 455.57 1566.57 379.84 1708.55 553.74"/>
  <polygon class="st5" points="1568.46 389.01 1453.19 457.04 1273.22 379.84 1409.76 296.63 1568.46 389.01"/>
  <polygon class="st2" points="1404.88 304.32 1289.61 372.35 1104.68 346.77 1166.55 237.96 1404.88 304.32"/>
  <polygon class="st3" points="1187.88 241.16 1115.35 347.84 888.13 376.84 930.68 253.96 1187.88 241.16"/>
  <polygon class="st1" points="930.8 258.23 895.6 379.84 714.26 449.17 668.39 349.97 930.8 258.23"/>
  <polygon class="st9" points="678.36 346.48 714.26 449.17 513.71 610.25 471.04 499.31 678.36 346.48"/>
  <polygon class="st6" points="471.04 499.31 514.78 612.38 393.17 806.53 320.63 698.79 471.04 499.31"/>
  <polygon class="st7" points="320.63 689.19 400.64 797.99 345.17 1031.61 229.99 944.1 320.63 689.19"/>
  <polyline class="st0" points="357.97 1017.74 240.33 935.6 229.99 1155.35 240.33 1193.75 364.77 1170.28"/>
  <polygon class="st8" points="364.77 1170.28 240.33 1178.47 281.04 1339.54 406.36 1519.29 543.03 1553.41 574.26 1507.67 417.71 1322.29 364.77 1170.28"/>
  <polyline class="st2" points="912.73 1624.29 913.29 1700.55 1024 1718.58 1273.22 1657.08 1245.68 1565.08"/>
  <polygon class="st5" points="562.19 1477.84 436.24 1519.29 644.21 1657.08 912.73 1727.46 912.73 1624.29 690.37 1565.08 562.19 1477.84"/>
  <path class="st4" d="M1789.83,1151.4c32.56-90.66,48.35-185.92,43.76-281.73-8.09-169.09-79.55-327.21-201.89-444.1-132.03-126.15-307.39-192.95-489.35-201.48-371.42-17.41-740.57,208.81-877.59,557.81-103.33,263.19-50.14,558.64,160.41,752.3,67.25,61.86,146.05,109.98,232.25,142.33,236.76,88.86,501.93,59.28,724.08-61.1,25.3,23.92,51.05,45.81,79.17,66.1l122.56,88.38c27.63,20.33,50.73,30.01,74.32,52.56,4.29,4.11,10.66,2.1,14.11-.1,12.42-7.92,2.24-22.88-1.64-34.35l-104.48-308.46c101.08-86.48,178.68-203.6,224.29-328.18ZM1543.6,1474.01c-5.01,6.25-1.15,20.7,1.33,27.94l30.39,88.79,60.61,180.08c-14.41-5.83-24.37-13.9-36.46-22.58l-109.05-78.23c-33.98-24.38-65.09-49.67-95.05-78.53-7.1-1.33-12.32-3.34-19.45-3.61-215.05,119.46-478.83,151.07-710.96,62.75-78.48-29.86-150.78-73.08-213.18-128.52-130.81-116.23-206.63-280.1-211.21-455.14-4.9-187.28,68.74-367.12,190.64-508.29,177.27-205.29,448.96-323.11,720.5-307.12,169.2,9.96,331.99,72.32,456.31,188.56,139.55,130.48,209.91,312.79,198.17,503.32-6.48,105.15-36.87,205.92-86.34,298.95-35.29,66.37-79.39,125.69-129.54,181.26-15.76,17.46-31.97,31.99-46.69,50.34Z"/>
  <path class="st4" d="M1702.01,895.32c-9.26-259.29-185.78-468.78-434.28-535.34-266.12-71.29-553.18,23.02-739.73,222.51-107.33,114.77-179.38,265.94-188.68,423.67-1.63,27.66-1.58,53.74.27,80.97,11.5,168.81,78.11,294.37,234.67,420.54,99.26,79.99,227.79,113.48,356.02,117.37,242.36,7.36,480.78-108.31,628.3-300.71,94.55-123.31,148.98-273.54,143.43-429.02ZM1495.31,1357.86c-88.01,95.3-199.25,166.12-322.87,205.74-184.23,59.04-387.56,45.14-552.46-57.5-154.6-96.22-249.33-260.82-254.94-443.04-6.56-213.1,103.72-413.53,270.84-542.7,117.37-90.72,258.62-146.17,406.64-155.69,133.75-8.61,260.75,19.95,374.27,88.99,151.31,92.03,246.73,250.49,257.55,427.51,10.8,176.78-59.38,347.14-179.03,476.7Z"/>
</svg>