<?xml version="1.0" encoding="UTF-8"?>
<svg id="Layer_1" xmlns="http://www.w3.org/2000/svg" version="1.1" viewBox="0 0 2048 2048">
  <!-- Generator: Adobe Illustrator 30.2.1, SVG Export Plug-In . SVG Version: 2.1.1 Build 1)  -->
  <defs>
    <style>
      .st0 {
        fill: #49b763;
      }
    </style>
  </defs>
  <path d="M1193.77,1850.34l-81.56,1.36c-39.81.66-79.14.69-118.95.02l-82.19-1.39-136.14-.04c-13.79,0-26.95.85-40.51,1.64l-41.59,2.4-62.17,8.23c-27.53,3.64-54.36,10.41-82.26,5.91-34.69-5.59-68.73-56.88-75.67-89.13-3.05-14.15-1.67-29.78-.01-43.97,2.7-23.16,28.93-47.83,46.28-63.01l41.21-36.06c-.27-43.44,5.71-85.38,13.83-128.61,9.12-48.57,20.63-94.64,39.71-140.02,39.36-93.6,111.59-166.37,206.88-206.37-109.89-92.43-161.61-241.75-170.13-379.84l.36-111.79c.41-127.79,64.84-299.29,157.86-394.89,31.65-32.53,65.64-61.68,107.83-79.85,53.19-22.92,109.89-28.85,167.27-28.67,46.65.14,88.08,14.6,126.83,39.1,27.51,17.4,52.07,35.7,75.32,58.86,34.28,34.15,62.55,71.09,86.03,113.9,50.81,92.63,78.02,194.82,82.7,300.35,5.12,115.59-6.7,221.58-54.89,327.33-27.28,59.86-64.71,111.74-114.85,155.08,66.02,31.68,104.67,58.71,150.64,113.26,62.06,78.72,82.94,162.83,99.89,259.83,5.95,34.08,9.32,66.75,7.93,101.57l48.53,42.02c17.07,14.78,33.69,31.37,39.25,54.38,3.83,15.83,4.1,34.71.05,50.79-7.86,31.29-41.37,81-75.31,85.83-16.04,2.29-33.18,1.91-49.04-.49l-76.31-11.56c-20.02-3.03-39.21-3.8-59.25-4.62l-41.91-1.7-135.65.17Z"/>
  <path class="st0" d="M1102.99,1769.97c-34.42.65-65.76.73-99.01.09l-100-1.93-141.88.15c-64.38.07-126.54,6.92-189.65,19.72-5.83-2.1-21.19-26.54-17.88-32.48,6.08-10.9,17.39-18.52,26.94-26.6,18.14-15.33,35.47-30.21,51.7-48.93l7.73,18.71c3.15-23.17-.18-43.41,1.25-65.6,4.41-68.37,16.31-135.02,36.98-200.22,16.24-51.24,42.08-96.51,80.43-133.64,26.51-25.67,57.08-43.72,90.19-59.5,41.25-19.65,78.71-43.32,79.27-94.7l23.22,6.63c3.32.95,6.59-.92,7.36-3.23.62-1.87.07-6.55-3.14-7.49-88.79-26.09-147.52-103.24-181.83-186.03-62.18-150.04-55.51-339.28,8.16-488.19,32.83-76.77,94.46-164.96,173.37-197.84,47.14-19.64,132.46-30.7,181.25-8.15,22.69,10.48,63.34,39.64,81.89,56.07,35.04,31.03,61.55,68.56,83.57,110.12,44.51,83.99,65.96,176.6,70.12,271.7,5.94,135.6-32.35,302.42-138.87,395.21-25.56,22.26-54.02,37.57-86.12,47.35-2.95.9-2.89,5.9-2.38,7.87,2.24,8.55,23.96-4.93,30.26-3.79.04,51.77,39.93,75.93,80.65,95.46,27.24,13.06,52.56,27.05,75.69,46.79,44.56,38.03,74.72,87.11,92.72,143.22,20.87,65.06,33.16,131.97,37.34,200.33,1.44,23.59-2.76,45.01,2.05,68.93,4.42-6.19,2.89-13.22,6.69-20.73,18.95,21.36,39.65,39.15,61.51,57.45,6.37,5.33,15.05,11.66,18.47,19.23-.49,12.1-9.54,22.24-17.45,32.4-109.92-23.14-227.08-22.22-339.56-20.11l-91.07,1.71Z"/>
</svg>