<?xml version="1.0" encoding="UTF-8"?>
<svg id="Layer_1" xmlns="http://www.w3.org/2000/svg" version="1.1" viewBox="0 0 2048 2048">
  <!-- Generator: Adobe Illustrator 30.2.1, SVG Export Plug-In . SVG Version: 2.1.1 Build 1)  -->
  <defs>
    <style>
      .st0 {
        fill: #985aa3;
      }

      .st1 {
        fill: #466026;
      }

      .st2 {
        fill: #f05722;
      }

      .st3 {
        fill: #8dc64e;
      }
    </style>
  </defs>
  <path d="M948.95,1753.23c-7.5.48-14.09,1.38-21.89,2.01l-12.88,1.04-58.74,6.12c-29.35,3.06-79.41,10.67-106.73,20.18-8.24,2.87-16.37,4.63-24.8,6.37l-32.28,6.67-30.59,6.33-31.47,6.38-26.69,5.42-36.83,7.14-41.91,9.15c-6.65,1.45-13.29,2.24-20.11,3.18-16.9,2.35-31.98-4-37.06-21.38-1.83-6.27-6.16-15.69-1.33-23.49l-16.95.81c-7.22.34-23.53-8.35-30.44-13.47-12.18-9.02-21.51-20.49-29.63-33.33-26.75-42.31-53.95-128.7-66.81-178.08l-3.56-13.68-5.21-21.72-4.92-22.04c-2.99-13.38-10.33-52.84-11.64-65.44l-4.31-41.35-.86-10.13-.74-22.47c-.63-19.12-1.68-38.15-.32-57.46l1.06-15.08,1-15.93.98-13,.94-12.01,3.84-32.97,3.05-20.02c2.27-14.9,6.38-35.23,7.54-48.62.16-1.91,5.04-15.06,5.89-22.98.23-2.19,2.22-4.45,1.59-6.7-.5-1.81-2.28-3.88-4.58-5.25-3.59-2.16-6.23-5-9.39-7.52-16.39-13.09-31.94-38.21-38.92-58.02-5.36-15.21-8.84-30.09-9.84-46.16-.7-11.24-1.07-22.36-.07-33.67l.98-11.08c6.23-70.56,40.68-136.38,86.36-189.22,7.48-8.65,14.62-16.52,24.6-23.59-33.37-42-52.54-88.57-63.35-142.08-3.11-15.38-6.06-29.94-6.56-45.5l-.71-22.28c-.21-6.67-.23-12.98,0-19.62l.72-21.57c2.16-64.63,31.63-146.82,71.89-199.88,19.17-25.26,41.45-46.89,68.01-63.94,14.11-9.06,28.12-15.67,43.75-21.41,17.16-6.3,34.44-8.96,52.56-10.49,8-.68,15.3-.24,23.49.39,65.16,5,119.07,44.99,154.7,97.4,15.03,22.11,27.4,46.62,36.15,71.83,1.93,5.57,3.41,10.95,5.82,16.13,29.31-68.63,76.54-131.29,140.9-169.43,29.78-17.64,61.94-30.05,96.27-32.86l14.1-1.16c5.41-.44,9.71-.32,15.05,0l19.12,1.15c43.82,2.63,98.53,30.69,131.43,60.66,25.78,23.48,50.82,54.09,67.09,84.77l4.58,8.63c5.68,10.7,23.45,49.62,25.14,59.74.2,1.22,1.52,1.87,2.07.76,29.7-61.09,80-115.85,144.64-139.15,59.36-21.4,120.6-12.14,172.29,23.53,28.02,19.34,50.52,44.37,68.87,72.86,4.97,7.72,8.66,15.04,13.02,23.23,15.59,29.31,25.54,60.51,32.59,93.22,6.08,28.21,9.56,68.98,7.8,97.8l-.86,14.18c-3.9,63.96-23.41,128.33-57.79,182.64-.7,1.11-1.55,1.54-.97,2.71-.99-1.99,13.15,9.83,12.85,9.65,8.41,5.27,16.23,10.71,23.43,17.66,10.09,9.74,20.44,19.08,27.78,31.1l3.8,6.21c3.66,5.99,7.55,11.97,10.49,18.44l4.46,9.84c13.8,30.44,19.85,63.42,22.71,96.92,1.16,13.59.54,26.83,0,40.24-.25,6.05-1.56,11.55-2.44,17.69-5.04,35.31-17.96,68.67-37.58,98.33,3.52,2.63,4.04,5.35,5.4,8.79,17.75,44.94,31.61,90.6,40.13,138.57,7.38,41.55,11.51,82.96,13.01,124.99l.58,16.16.25,55.9-1.2,9.12c-.86,6.54.54,13.31.05,19.98l-1.02,13.99-.84,12.09-3.95,30.92c-1.45,11.35-3.77,21.88-6.03,32.99-12.35,60.67-41.03,115.45-83.35,160.43-4.92,5.23-9.16,9.89-14.52,14.72-18.56,16.7-47.53,39.8-74.06,39.02-16.79-.5-17.13-6.63-19.96-3.16-11.43,14.01-35.04,12.96-51.15,8.05l-66.56-20.26-41.97-11.03-24.13-4.89c-16.28-3.3-32.5-5.63-49.18-7.65-4.57-.55-8.53-1.62-13.13-1.98l-11.02-.88c-3.55-.28-7.24-.81-10.82-1.11l-12.02-1.01-14.02-.96-15.93-1.07-13.07-.99-16.53-.67-32.97-1.02c-8.37-.26-16.37-.33-24.66-.35l-41.63-.12c-.73,0-1.67,1.06-2.35.86-6.3-1.84-12.41-.25-18.82-.11l-30.5.66c-2.18.05-39.36,1.29-37.54,1.56-3.52-.53-6.67.71-10.05.79l-20.81.51-12.08.91-12.06.98c-6.47.53-12.51.57-19.06.99l-15.97,1.03Z"/>
  <g>
    <path class="st0" d="M1535.68,1194.4c-.27-.56-.93-1.1-1.5-.96-.44,5.73.23,11.51.9,17.54l3.9,34.95c1.78,16,3.61,31.01,6.21,46.96,4.61,28.34,7.85,56.3,6.49,85.04l-.81,17.14c-1.61,33.9-12.46,83.71-20.13,117.71-13.51,59.93-25.37,113.9-17.31,175.57,2.37,18.11,6.96,34.34,12.56,51.59,2.88,8.87,1.3,18.65,5.69,27.93-6.59,1.62-11.67,4.11-17.7,2.98-16.8-3.17-32.63-8.14-49.02-12.73l-30.57-8.56c-19.83-5.55-39.31-8.98-59.8-11.14-19.29-2.04-37.66-7.7-53.91-18.01-5.69-3.61-4.14-22.88-4-28.43l.77-29.74,1.03-32.96,1.06-25.01c.15-3.59-.32-6.77-.22-10.31.23-8.2,1.13-15.67-.29-24.12-6.58-39.31-10.29-77.97-13.39-117.94-4.56-58.85-13.51-116.63-23.7-174.94-12.73-72.81-27.48-144.47-42.74-216.8,9.38-10.48,17.03-21.49,24.95-33.19,16.51-24.4,34.71-46.35,54.63-67.94,23.56-25.53,18.74-18.08,34.66-51.08-30.64-41.58-64.48-105.31-74.23-154.94l-10.84-55.17c11.31-36.17,18.8-72.52,20.22-110.18l.84-22.26c1.6-42.33-3.45-89.02-13.68-130.26,1.56-5.83,4.47-10.1,7.08-15.38,12.62-25.56,26.85-49.69,45.42-71.44s40.89-41.37,66.9-55.09c27.33-14.41,56.76-22.32,87.59-20.82,31.43,1.54,60.72,11.56,86.75,29.35,57.6,39.35,91.73,105.48,106.05,172.68,18,84.47,7.24,177.72-32.09,254.86-12.92,25.35-27.75,49.35-48.11,68.92l-20.96,20.14c-1.27,1.22-37.18,39.53-36.67,36.02-.83,5.68,2.64,10.75,6.45,12.14,3.51,1.28,7.3.68,10.05-1.4l10-7.54,4.08,15.03c1.56,5.76,5.26,9.79,8.71,14.36.49,2.77-3.76,4.26-5.17,5.76-27.87,29.74-63.41,86.99-83.8,123.13-10.06,17.83-18.04,35.55-24.34,54.86-4,12.24-5.72,24.05-6.21,36.89-1.03,26.94,8.95,49.67,34.26,61.66,29.25,13.86,60.79,19.17,93.29,17.73,42.78-2.28,82.25-19.4,111.99-51.63,31.24,77.18,47.65,161.97,50.48,243.91l.93,27.14c.62,17.88.83,35.48.22,53.57l-.98,29.01c-.44,12.91-3.7,42.85-5.71,56.08-5.51,36.28-14.57,71.23-30.83,104.3-17.68,35.95-41.98,67.32-71.62,94.11-11.72,10.59-24.59,19.01-38.72,25.14-12.32,5.35-24.09,2.96-33.29-6.3-26.27-26.43-32.77-70.31-34.1-106.07-.31-8.33-.28-15.93.3-24.29l1.18-17.06c3.27-47.37,28.71-133.47,36.08-193.99,4.88-40.08,4.49-79.67-1.72-119.33-3.75-23.95-11.23-45.89-19.27-68.54-4.7-13.23-8.19-26.12-14.31-38.7Z"/>
    <g>
      <path class="st3" d="M519.63,907.04c26.81,34.6,47.18,72.43,57.4,114.69,5.13,21.21,1.6,42.03-10.53,59.91-21.8,32.13-56.46,46.49-93.67,53.35-23.92,4.41-47.89,4.61-71.63-1.42-23.01-5.85-44.54-14.83-64.71-26.95-74.21-44.6-69.32-141.67-42.77-213.04,14.66-39.4,37.05-74.66,64.37-106.31,7.09-8.21,13.97-15.5,22.93-21.6,5.53,4,9.45,8.74,14.47,12.97,11.37,9.59,22.89,17.94,36.85,24.58-10.3,15.1,1.86,23.52-6.21,36.99-4.23,1.84-20.39-2.27-22.07,9.99-.67,4.91,4.34,10.68,9.08,11.48,9.36,1.59,18.02,1.93,27.07,4.26,17.43,4.48,34.3,10.06,50.71,17.01,12.37,5.24,20.39,13.37,28.72,24.11Z"/>
      <path class="st3" d="M1507.06,1151.55c-21.18-8.64-27.54-21.64-27.09-43.6.29-14.37,3.87-27.73,8.92-41.12,12.68-33.57,57.56-107.54,79.36-134.51l21-25.98c6.57-8.13,10.06-18.47,13.78-27.9-1.15-1.55-3.6-1.17-5.75-.14-5.55-12.52-9.28-25.31-11.68-39.7,17.04-14.76,32.79-30.34,46.59-48.8,12.59,2.38,41.19,30.01,49.58,39.53,28.47,32.31,40.88,77.08,46.49,119.32,3.28,24.68,2.29,49.1-2.13,73.61-7.43,41.21-28.53,86.68-61.97,112.93-44.33,34.8-105.61,37.35-157.09,16.35Z"/>
    </g>
    <g>
      <path class="st2" d="M520.85,1275.55c-.68-6.82-1.29-12.49-3.11-18.82-1.84-.03-4.84,21.34-5.12,23.65l-2.56,20.71c-2.74,22.21-4.77,44.11-5.48,66.43-.12,3.76-.91,7.02.08,10.73s-.38,6.98-.4,10.96l-.78,180.18-1.03,39.17-1.03,25.69-1.26,21.76-4.98,46.18c-1.77,16.37-8.12,44.11-19.28,56.64-12.99,14.58-33.02,7.26-45.5-3.23-10.39-8.74-18.35-19.09-25.19-30.89-8.5-14.68-15.36-29.47-21.58-45.58-22.34-57.82-39.7-117.08-52.88-177.9-9.91-45.71-15.55-91.12-17.21-137.54-2.39-66.79,5.67-141.01,19-206.22,1.69-8.25,4.36-15.18,6.85-23.2,55.03,26.51,96.83,33.74,155.59,18.97,25.94-6.52,49.74-17.67,69.69-35.54,27.8-24.89,43.49-59.91,35.05-97.7-8.05-36.03-23.5-69.36-43.28-100.33-14.1-22.07-32.14-39.52-55.11-52.09-9.61-5.26-18.71-10.68-28.7-15.28-7.55-3.47-15.51-4.72-23.41-7.75l2.84-13.55c1.63-7.79-.48-14.56-3.74-22.18,8.26.42,14.72,2.33,22.01.63-2.71-4.44-6.32-6.48-9.81-9.12l-20.38-15.41c-11.6-8.77-23.07-16.4-33.82-26.58-56.58-53.51-83.34-130.96-87.91-207.59-5.37-89.92,20.47-186.42,80.27-255.12,19.58-22.49,42.29-40.79,69.13-53.83,80.63-39.18,162.59-9.11,214.84,59.48,18.16,23.84,31.77,50.05,41.81,78.29,3.15,8.84,6.29,17.21,7.16,26.48.57,6.04,1.9,11.39,7.57,15.48-33.3,98.79-35.46,208.74-4.09,308.12-4.96,19.49-11.41,36.85-18.05,55.38-6.15,17.17-14.65,32.81-19.24,50.47l-4.12,15.82c-1.71,6.56,3.35,14.1,6.19,19.5,16.51,31.43,28.52,74.24,38.83,108.4l14.61,48.4c3.66,12.12,10.31,17.3,8.55,21.36-23.76,54.62-42.7,110.37-57.78,167.93l-13.12,50.11c-15.75,60.15-41.11,197.73-45.81,258.98-.64,8.32-2.52,16.01-3.6,24.16-1.54,11.63-2.72,22.97-3.37,34.73l-.64,11.58c-1.82,33.07-5.09,65.49-11.9,98-4.08,19.45-9.62,37.3-18.06,55.14-5.52,11.69-16.2,33.83-11.32,46.5l-46.63,9.51-37.82,8c-6.74,1.42-13.47,2.05-20.18.78s-10.46-19.18-12.28-25.89c-.62-2.27,1.07-2.68,2.58-3.82,24.11-18.23,33.32-54.78,36.18-83.59l4.88-49.08.76-12.07.75-19.44c.27-7.05.9-13.87,1.01-21.05l.83-56.39c.07-4.95,1.44-9.9.15-14.65-.86-3.17.4-5.38.41-8.71l.06-179.64-1.22-16.17-4.85-48.4Z"/>
      <g>
        <path class="st3" d="M1252.98,741.09c1.58-3.24,3-6.65,4.27-10.22l1.54.1c-.21,22.89,4.33,45.66,11.24,67.12,9.57,28.23,19.88,55.98,36.33,80.46l23.36,34.76-25.88,28.8c-26.84,29.87-55.34,58.74-72.56,94.96l-10.68,22.46c-2.57,5.41-2.61,8.78-1.47,14.54l37.83,190.91c9.12,46.02,14.62,91.58,21.11,137.96l14.12,100.9c2.05,14.68,6.18,28.35,6.55,43.09l.74,29.55c.51,20.43.5,40.6-.02,61.04l-.85,33.41-4.07,58.25c-1.99,3.47-8.96,2.46-12.4,2.15l-13.12-1.17-16.98-.96-19.66-.56c-8.28-.24-16.22-1.2-24.73-1.2l-104.11.06-34.09,1-24.46.86-15.02.76-26.73,1.36-72.88,5.01c-44.87,3.08-88.58,8.43-133,15.6-23.53,3.8-44.35,11.46-67.51,16.4l-103.58,22.1c-7.68-7.17-13.93-3.04-12.86-7.32,2.11-8.42,5.91-16.84,9.74-24.92,9.37-19.76,15.69-39.65,20.07-61.21,6.48-31.86,10.83-63.55,11.96-96.03l.36-10.4c.94-26.92,4.13-27.68,8.24-51.13l3.53-20.11,3.5-23.64c8.74-59.14,18.56-117.38,31.06-175.89,8.1-37.92,17.84-74.56,28-112.08,15.72-58.04,36.18-113.74,60.76-168.6l-12.24-24.43c-2.33.26-3.59,6.28-4.7,2.58-4.78-15.92-9.39-31.47-15.06-47.17-2.33-6.45-3.33-12.45-5.1-19.04-8.09-30.03-23.11-74.69-40-101.27,4.37-5.85,6.74-11.73,9.3-18.3,7.63-19.58,15.73-38.44,22.31-58.41.91-2.74,1.13-5.63,3.67-7.1,15.02,35.77,34.98,67.82,60.71,96.43,9.87,10.97,20.29,19.86,31.88,29.82-6.93,6.49-10.33,28.43-1.22,32.93l9.15-2.7c2.91-6.19,5.52-11.58,9.86-17.04,15.65,10.13,46.62,29.93,63.86,33.21,7.26,1.38,14.73-.79,21.79-1.78.14-3.65-2.9-4.96-4.41-7.26-5.18-7.87-12.29-12.1-20.79-15.67-14.35-6.02-26.98-14.29-40.51-22.09-15.66-9.03-30.25-18.2-43.32-31.09-59.69-58.88-96.07-164.68-99.46-247.14l-.57-13.77c-.31-7.53-.38-14.5-.31-21.91l.11-12.27c.69-77.03,29.14-169.65,72.72-234.53,20.81-30.98,45.6-58.09,75.75-80.12,65.89-48.14,147.55-59.8,221.21-21.32,62.21,32.5,105.91,92.17,131.41,156.51,44.32,111.82,39.69,247.49-9.01,357.28-27.61,62.25-71.54,120.43-130.98,155-5.76,3.35-9.07,10.34-5.45,16.36,3.81,6.33,11.59,6.23,17.51,2.77,16.53-9.64,31.04-21.01,46.41-33.64,4.13,10,6.7,19.11,12.22,27.65,3.23,5,11.56,8.93,16.54,5.2,6.14-4.6,4.56-13.48,1.65-19.2-4.85-9.51-9.67-17.83-17.22-26.3,36.88-37.08,65.63-82.59,84.66-130.36Z"/>
        <path class="st1" d="M1270.03,798.08c-1.92-.9-1.77-3.53-2.38-5.69-6.45-22.84-8.99-36.2-9.53-60.79-2.81.81-2.35,9.51-5.14,9.48,2.06-5.17,2.47-10.17,6.34-14.91l.8,22.91c.49,14.17,7.29,36.01,9.91,49Z"/>
      </g>
    </g>
  </g>
</svg>