<?xml version="1.0" encoding="UTF-8"?>
<svg id="Layer_1" data-name="Layer 1" xmlns="http://www.w3.org/2000/svg" viewBox="0 0 462.75 83.74">
  <defs>
    <style>
      .cls-1 {
        fill: #735ca8;
      }

      .cls-2 {
        fill: #c263a7;
      }

      .cls-3 {
        fill: #231f20;
      }

      .cls-4 {
        fill: #f15722;
      }

      .cls-5 {
        fill: #49b863;
      }

      .cls-6 {
        fill: #8ec74e;
      }

      .cls-7 {
        fill: #f78e1e;
      }

      .cls-8 {
        fill: #fed206;
      }

      .cls-9 {
        fill: #995aa4;
      }

      .cls-10 {
        fill: #3fbced;
      }
    </style>
  </defs>
  <path class="cls-4" d="M35,32.95c2.69,6.99.81,14.91-4.74,19.94-5.55,5.02-13.62,6.11-20.31,2.74v1.94H0V0h9.95v23.29c2.53-1.28,5.32-1.95,8.16-1.94,7.49,0,14.2,4.61,16.9,11.6ZM18.11,47.62c4.5,0,8.15-3.65,8.16-8.16,0-4.5-3.65-8.16-8.16-8.16s-8.16,3.65-8.16,8.16,3.65,8.16,8.16,8.16h0Z"/>
  <path class="cls-7" d="M67.84,44.22l6.45,7.58c-4.74,4.04-9.07,5.76-14.47,5.76-5.74.07-11.19-2.49-14.8-6.96h0c-.69-.87-1.29-1.8-1.81-2.78l-.02-.03c-.69-1.32-1.21-2.72-1.55-4.17l-.02-.09c-1.94-8.42,2.34-17.04,10.22-20.59,7.88-3.54,17.17-1.02,22.18,6.02h0c.13.19.26.38.39.58.08.12.16.25.23.37.16.25.31.51.46.78.06.11.12.21.17.32.18.34.35.69.51,1.04v.02s.03.04.03.04l.02.05v.02s.04.07.04.07h0s.03.07.03.07h0s.03.09.03.09l1.95,4.62-10.04,4.15-1.37.56-11.07,4.57c1.26.77,2.72,1.16,4.2,1.11,2.98,0,5.28-.69,8.22-3.2ZM51.61,38.23l.36-.15,5.9-2.44,6.15-2.54c-.05-.05-.1-.09-.15-.14-1.38-1.07-3.08-1.65-4.82-1.65-.97,0-1.94.2-2.83.59-2.55,1.13-4.3,3.54-4.61,6.31h0Z"/>
  <path class="cls-8" d="M82.87,57.62V.05h9.95v57.57h-9.95Z"/>
  <path class="cls-6" d="M134.81,39.44c0,7.32-4.41,13.93-11.18,16.73s-14.56,1.25-19.73-3.93c-5.18-5.18-6.73-12.97-3.92-19.73,2.8-6.77,9.41-11.18,16.73-11.18,10,.01,18.1,8.11,18.11,18.11ZM116.7,47.59c4.5,0,8.15-3.65,8.16-8.16,0-3.3-1.99-6.27-5.03-7.54-3.05-1.26-6.56-.56-8.89,1.77-2.33,2.33-3.03,5.84-1.77,8.89,1.26,3.05,4.24,5.03,7.54,5.03h0Z"/>
  <path class="cls-5" d="M172.39,37.24v20.33h-9.95v-20.33c0-3.29-2.67-5.96-5.96-5.96s-5.96,2.67-5.96,5.96v20.33h-9.95V21.33h9.95v1.16c1.89-.77,3.92-1.16,5.96-1.16,8.78,0,15.9,7.13,15.91,15.91Z"/>
  <path class="cls-10" d="M219.15,21.35v9.95h-4.76v8.15c0,4.8-1.91,9.41-5.3,12.81-3.4,3.4-8,5.3-12.81,5.3h-6.59c-.87,0-1.57.7-1.57,1.57s.7,1.57,1.57,1.57h13.18c6.36,0,11.52,5.16,11.52,11.52s-5.16,11.52-11.52,11.52h-11.56v-9.95h11.56c.87,0,1.57-.7,1.57-1.57s-.7-1.57-1.57-1.57h-13.18c-4.77,0-9.05-2.94-10.76-7.39-1.71-4.46-.49-9.5,3.06-12.69-5.53-7.09-5-17.17,1.22-23.66,6.23-6.49,16.27-7.42,23.59-2.19.16-.18.32-.36.49-.53,1.82-1.83,4.3-2.86,6.89-2.85h4.98ZM196.28,31.3c-4.5,0-8.15,3.65-8.16,8.15,0,3.3,1.99,6.27,5.03,7.54,3.05,1.26,6.56.57,8.89-1.77,2.33-2.33,3.03-5.84,1.77-8.89-1.26-3.05-4.24-5.03-7.53-5.03h0Z"/>
  <path class="cls-1" d="M224.92,10.67V.16h9.95v10.51h-9.95ZM224.92,57.57V21.4h9.95v36.17h-9.95Z"/>
  <path class="cls-9" d="M273.28,37.24v20.33h-9.95v-20.33c0-3.29-2.67-5.96-5.96-5.96s-5.96,2.67-5.96,5.96v20.33h-9.95V21.33h9.95v1.16c1.89-.77,3.92-1.16,5.96-1.16,8.78,0,15.9,7.13,15.91,15.91Z"/>
  <path class="cls-2" d="M320.05,21.35v9.95h-4.76v8.15c0,4.8-1.91,9.41-5.3,12.81-3.4,3.4-8,5.3-12.81,5.3h-6.59c-.87,0-1.57.7-1.57,1.57s.7,1.57,1.57,1.57h13.18c6.36,0,11.52,5.16,11.52,11.52s-5.16,11.52-11.52,11.52h-11.57v-9.95h11.56c.87,0,1.57-.7,1.57-1.57s-.7-1.57-1.57-1.57h-13.18c-4.77,0-9.05-2.94-10.75-7.39-1.71-4.46-.49-9.5,3.06-12.69-5.53-7.09-5-17.17,1.22-23.66,6.23-6.49,16.27-7.42,23.59-2.19.16-.18.32-.36.49-.53,1.82-1.83,4.3-2.86,6.89-2.85h4.98ZM289.02,39.46c0,3.3,1.99,6.27,5.04,7.54,3.05,1.26,6.56.57,8.89-1.77,2.33-2.33,3.03-5.84,1.77-8.89-1.26-3.05-4.24-5.03-7.53-5.03-4.5,0-8.15,3.65-8.16,8.15Z"/>
  <path class="cls-3" d="M325.82,57.57v-10.18h9.95v10.18h-9.95Z"/>
  <path d="M342.36,57.62V.05h9.95v57.57h-9.95Z"/>
  <path d="M399.05,21.35v9.95h-4.76v8.15c0,4.8-1.91,9.41-5.3,12.81-3.4,3.4-8,5.3-12.81,5.3h-6.59c-.87,0-1.57.7-1.57,1.57s.7,1.57,1.57,1.57h13.18c6.36,0,11.52,5.16,11.52,11.52s-5.16,11.52-11.52,11.52h-11.57v-9.95h11.56c.87,0,1.57-.7,1.57-1.57s-.7-1.57-1.57-1.57h-13.18c-4.77,0-9.05-2.94-10.75-7.39-1.71-4.46-.49-9.5,3.06-12.69-5.53-7.09-5-17.17,1.22-23.66,6.23-6.49,16.27-7.42,23.59-2.19.16-.18.32-.36.49-.53,1.82-1.83,4.3-2.86,6.89-2.85h4.98ZM368.03,39.46c0,3.3,1.99,6.27,5.04,7.54,3.05,1.26,6.56.57,8.89-1.77,2.33-2.33,3.03-5.84,1.77-8.89-1.26-3.05-4.24-5.03-7.53-5.03-4.5,0-8.15,3.65-8.16,8.15Z"/>
  <path d="M439.82,32.95c2.69,6.99.81,14.91-4.74,19.94-5.55,5.02-13.62,6.11-20.31,2.74v1.94h-9.95V0h9.95v23.29c2.53-1.28,5.32-1.95,8.16-1.94,7.49,0,14.2,4.61,16.9,11.6ZM422.93,47.62c4.5,0,8.15-3.65,8.16-8.16,0-4.5-3.65-8.16-8.16-8.16s-8.16,3.65-8.16,8.16,3.65,8.16,8.16,8.16h0Z"/>
  <path d="M457.99,31.28v16.31h4.76v9.95h-4.98c-5.38,0-9.73-4.36-9.74-9.74v-16.52h-2.89v-9.95h2.89V0h9.95v21.32h4.76v9.95h-4.76Z"/>
</svg>