<svg xmlns="http://www.w3.org/2000/svg" version="1.1" xmlns:xlink="http://www.w3.org/1999/xlink" width="397.56" height="389.07"><svg xmlns="http://www.w3.org/2000/svg" version="1.1" xmlns:xlink="http://www.w3.org/1999/xlink" width="397.56" height="389.07"><svg id="Layer_1" xmlns="http://www.w3.org/2000/svg" version="1.1" viewBox="0 0 397.56 389.07">
  <!-- Generator: Adobe Illustrator 30.1.0, SVG Export Plug-In . SVG Version: 2.1.1 Build 136)  -->
  <defs>
    <style>
      .st0 {
        fill: #8cc64e;
      }

      .st1 {
        fill: #000002;
      }

      .st2 {
        fill: #030000;
      }

      .st3 {
        fill: #010102;
      }

      .st4 {
        fill: #725ca6;
      }

      .st5 {
        fill: #42b9ea;
      }

      .st6 {
        fill: #fcd10a;
      }

      .st7 {
        fill: #010001;
      }

      .st8 {
        fill: #020102;
      }

      .st9 {
        fill: #060207;
      }

      .st10 {
        fill: #feefe0;
      }

      .st11 {
        fill: #ed5826;
      }

      .st12 {
        fill: #95be61;
      }
    </style>
  </defs>
  <path class="st10" d="M16.56,84.11l-.09,75.01-.25.97c-1.55,1.79-2.47-7.71-2.47-8.06l-.12-65.69c0-1.96,1.8-2.51,2.94-2.24h-.01Z"></path>
  <g>
    <polygon class="st11" points="157.36 -3.76 157.48 155.44 -6.26 155.39 -6.16 76.15 -5.87 75.26 75.61 75.13 75.89 -3.69 157.36 -3.76"></polygon>
    <path d="M-4.89,234.83c-.25.36-.56.36-.89.09l-.52-77.39,161.55-.05c2.41,2.52.19,4.99.18,7.7l-.21,62.66c0,1.64-.7,3.12-1.25,4-.9,1.48-3.33.74-5.48.74l-152.27-.11c-1.37,0-1.18,2.06-1.12,2.37h0v-.02h.01Z"></path>
    <polygon class="st2" points="75.89 -3.69 75.61 75.13 -5.87 75.26 -5.96 74.12 -6.11 73.01 -6.11 -3.91 75.89 -3.69"></polygon>
    <polygon class="st1" points="75.84 392.66 -6.01 392.87 -5.93 313.99 75.59 313.85 75.84 392.66"></polygon>
    <path class="st9" d="M157.48,155.44c-1.01,2.98-.07,6.13-.07,9.73l.03,69.45-162.34.2c-.06-.32-.26-2.38,1.12-2.37l152.27.11c2.14,0,4.59.74,5.48-.74.54-.87,1.25-2.35,1.25-4l.21-62.66c0-2.68,2.22-5.16-.18-7.7l-161.55.05-.23-1.13.27-1.02,163.73.05h.02v.02h0Z"></path>
  </g>
  <g>
    <path class="st6" d="M321.99-3.78l.36,78.79c0,.52-.17,1.21.92,1.21l77.14.07c1.43,0,2.41,2.54,3.56,2.19l-.25,76.96h-157.71c-2.51,0-4.14-.15-5.62-1.08-1.55-4.03,1.3-8.48-1.11-13.91.48-.1,1.11-.55,1.11-1.06V20.57c0-7.48.63-15.1-.81-22.44-.05-.28.05-.6.03-.88,1.93-1.67,4.49-1.34,7.43-1.33l74.94.29h-.01.01-.01.02Z"></path>
    <path class="st7" d="M403.73,155.45l.05,79.13-163.39.05v-80.27c1.49.93,3.13,1.07,5.62,1.07h157.71v.02h.01Z"></path>
    <polygon class="st7" points="403.89 75.03 322.33 75.01 321.99 -3.78 404 -3.95 403.89 75.03"></polygon>
    <path class="st7" d="M403.78,313.64l.06,79.25h-81.52l-.14-76.91v-2.14l81.6-.19h0ZM331.01,315.97v2.14h70.73v-2.14h-70.73Z"></path>
    <path class="st12" d="M403.89,75.03l.08,3.46c-1.17.34-2.14-2.19-3.56-2.19l-77.14-.07c-1.11,0-.92-.69-.92-1.21l81.55.02h-.01Z"></path>
  </g>
  <path class="st10" d="M-5.96,74.12c-1.27-.26-1.46-1.03-.12-1.09l.12,1.09Z"></path>
  <path class="st0" d="M157.44,234.62l-.09,158.05h-81.51l-.25-78.81-81.53.13.14-79.06c.35.27.64.27.89-.09l162.34-.2h-.02.02v-.02Z"></path>
  <path class="st4" d="M403.79,234.58v79.06l-81.6.19c0-.38-.22-2.1.3-2.1l72.49.16c2.38,0,4.44,1.45,6.32.2,2.49-1.61.64-4.2.65-6.9l.09-68.49c-3.34-1.77-5.95.03-9.32.02l-144.43-.12c-2.18,0-3.65-1.16-5.21-.14-2.08,1.37-.64,3.33-.64,5.8l.12,139.83c0,3.21-1.48,5.85.2,8.72,2.28,1.57,4.89.1,7.6.11l69.76.12-.2-74.03c0-1.37,1.7-1.31,2.23-1.09l.14,76.91-82.04-.12.09-158.13,163.39-.05v.02h-.01.02l.03.03h.02Z"></path>
  <path class="st4" d="M322.16,313.83v2.14c-.55-.18-2.23-.26-2.23,1.09l.2,74.03-69.76-.12c-2.7,0-5.31,1.46-7.6-.11-1.7-2.9-.2-5.52-.2-8.72l-.12-139.83c0-2.47-1.44-4.45.64-5.8,1.54-1.01,3.03.13,5.21.14l144.43.12c3.37,0,5.99-1.79,9.32-.02l-.09,68.49c0,2.66,1.85,5.28-.65,6.9-1.89,1.24-3.96-.19-6.32-.2l-72.49-.16c-.56,0-.3,1.7-.3,2.1v-.02h.01-.02l-.03-.03h0Z"></path>
  <rect class="st9" x="331.01" y="315.97" width="70.73" height="2.14"></rect>
  <g>
    <path class="st8" d="M239.6-2.75c.03.29-.08.6-.03.88-1.23.46-2.76.63-3.79,1.83,6.25,6.48-1.22,22.19,4.6,20.61v118.8c-.51-.29-1.3.64-1.11,1.06,2.41,5.44-.47,9.88,1.11,13.91-1.17.54-2.54,1.03-4.45,1.03l-78.47.04-.11-159.2,77.5-.11c2.08,0,3.72-.38,4.73,1.12h.02v.03h0,0Z"></path>
    <polygon class="st3" points="240.39 234.63 240.3 392.76 157.35 392.67 157.44 234.62 240.39 234.63"></polygon>
    <path class="st9" d="M240.38,20.57c-5.81,1.58,1.65-14.12-4.6-20.61.99-1.2,2.55-1.39,3.79-1.83,1.45,7.33.81,14.95.81,22.44h0Z"></path>
    <path class="st9" d="M239.26,140.45c-.18-.44.61-1.37,1.11-1.06,0,.53-.64.96-1.11,1.06Z"></path>
    <path class="st5" d="M240.39,234.63h-82.94l-.03-69.46c0-3.6-.93-6.77.07-9.73l78.47-.04c1.89,0,3.28-.51,4.45-1.03v80.27h-.02,0,0Z"></path>
  </g>
</svg></svg><style>@media (prefers-color-scheme: light) { :root { filter: none; } }
@media (prefers-color-scheme: dark) { :root { filter: none; } }
</style></svg>