<?xml version="1.0" encoding="UTF-8"?>
<svg id="Layer_1" data-name="Layer 1" xmlns="http://www.w3.org/2000/svg" viewBox="0 0 630.57 1136.67">
  <defs>
    <style>
      .cls-1 {
        fill: #fff;
      }
    </style>
  </defs>
  <path class="cls-1" d="M520.54,1136.6c-1.81.36-2.48-.89-3.43-2.06-7.88-9.76-17.49-28.2-24.37-39.63-59.22-98.32-114.67-198.98-173.39-297.61l-4.31-5.68-202.52,344.97c-2.17.46-2.71-1.53-3.53-2.94-8.23-14.03-16.55-35.03-23.63-50.37-29.05-62.92-55.73-126.95-85.38-189.6l190.11-319.06-.83-4.23c-43.93-85.73-112.79-183.77-107.78-284.33,2.91-58.33,40.02-134.21,63.57-188.43,4.68-10.79,18.5-46.46,24.98-53.02,57.56-58.26,204.85-55.56,271.41-14.43,21.92,13.54,23.12,19.21,33.26,41.74,17.64,39.25,34.63,79.62,50.31,119.69,10.63,27.18,20.67,54.08,23.5,83.5,10.42,108.14-63.27,206.57-108.01,298.9l190.03,320-110.02,242.59ZM193.77,64.81c-.86,37.81,4.75,76.26,18.77,111.37,10.01-2.68,19.88-7.15,30.01-10.08,35.42-10.25,73.74-12.12,110.36-7.36,21.9,2.85,43.05,9.57,63.57,17.44,1.67.29,2.56-1.58,3.27-2.89,2.31-4.28,5.03-14.37,6.51-19.48,8.12-28.01,11.12-56.61,11.34-85.77-.82-6.18-17-15.44-22.67-18.33-52.85-26.85-146.68-26.84-199.4.36-7.9,4.07-14.79,9.31-21.76,14.73ZM167.54,124.6c-2.56-.4-1.55.23-2.09,1.4-10.51,23.21-21.06,49.79-30.37,73.63-9.76,24.99-18.52,49.64-21.41,76.59-10,93.43,49.72,180.05,90.7,259.05l4.66,6.32,88.3-148.32c-23.22-42.75-50.11-83.57-73.96-126-25.02-44.51-48.87-91.37-55.84-142.67ZM465.54,125.6l-2.1,1.39c-6.87,47.55-28.75,90.85-51.71,132.29-41.72,75.27-88.4,150.38-132.37,224.63-81.18,137.06-164.06,273.13-244.38,410.71v2.99s78.6,176,78.6,176l3.81-2.68c93.79-162.7,190.29-323.94,282.35-487.65,40.88-72.7,113.64-188.91,118.82-271.18,4.33-68.81-29.89-124.62-53-186.49ZM313.6,361.57l3.45-.97c29.99-51.73,61.89-102.38,89.4-155.51-.16-1.97-19.63-8.04-22.89-8.98-37.37-10.76-84.01-12.21-122.01-4.01-5.26,1.14-34.85,9.23-36.57,12.51-.72,1.03.02,1.77.33,2.68,2.81,8.45,13.28,25.3,18.08,33.99,22.44,40.62,48.09,79.49,70.22,120.29ZM517.54,1073.6l79.02-178.44c-46.67-78.07-92.54-156.64-139.59-234.48-9.52-15.75-19.08-32.67-28.99-48.01-6.6-10.22-5.73-8.32-11.6,1.25-25.17,41.1-50.76,86.66-74,129-1.93,3.51-9.14,15.27-8.84,18.08l180.6,310.51,3.41,2.08Z"/>
</svg>