<?xml version="1.0" encoding="UTF-8"?>
<svg id="Layer_1" data-name="Layer 1" xmlns="http://www.w3.org/2000/svg" viewBox="0 0 122.54 115.32">
  <path d="M73.95,18.07c-12.74-8.47-29.11-2.78-35.81,10-5.96,11.36-5.8,24.65.3,35.86,7.29,13.41,19.55,11.26,16.85,20.62-.89,3.07-3.9,5.16-7.35,5.14l-42.99-.18c-3.27-.01-5.14-4.94-4.93-7.43s2.61-6.25,5.89-6.29l22.22-.23c-6.48-10.16-10.74-20.78-9.67-32.88,1.38-15.51,10.37-29.46,23.73-37.33C58.94-4.51,79.66-.42,91.51,14.91c13.17,17.05,16.16,43.98-.3,60.54l25.45.16c3.33.02,5.64,3.7,5.88,6.46.2,2.28-1.78,7.28-5.03,7.29l-44.88.07c-2.73,0-5.41-3.56-5.76-5.62-.52-3.1.97-6.6,3.83-8.27,9.06-5.28,16.16-13.44,17.8-24.19,1.9-12.42-3.53-25.96-14.54-33.28Z"/>
  <path d="M117.75,115.25l-112.57.08c-3.59,0-5.31-4.93-5.15-7.38s2.39-6.51,6.03-6.51h110.42c3.18,0,5.44,3.52,5.89,5.55.49,2.22-.62,8.26-4.63,8.26Z"/>
</svg>