<svg xmlns="http://www.w3.org/2000/svg" viewBox="0 0 20 12" width="1600" height="960"><path fill="#dbaeff" d="M0 0h20v12H0Z"/><path fill="#d59fff" d="M0 0h20v11H0Z"/><path fill="#cd90ff" d="M0 0h20v10H0Z"/><path fill="#c67fff" d="M0 0h20v9H0Z"/><path fill="#c271ff" d="M0 0h20v8H0Z"/><path fill="#bb61ff" d="M0 0h20v7H0Z"/><path fill="#b451ff" d="M0 0h20v6H0Z"/><path fill="#ad43ff" d="M0 0h20v5H0Z"/><path fill="#a632ff" d="M0 0h20v4H0Z"/><path fill="#9915ff" d="M0 0h20v3H0Z"/><path fill="#9205ff" d="M0 0h20v2H0Z"/><path fill="#8a01f5" d="M0 0h20v1H0Z"/></svg>