<?xml version="1.0" encoding="UTF-8"?>
<svg width="1e3" height="600" version="1.1" viewBox="0 0 264.6 158.8" xmlns="http://www.w3.org/2000/svg"><path d="m-0.033333-1.1e-6h264.67v158.8h-264.67z" fill="#939" stroke-width="1.0001"/><path d="m132.3 140.27-70.137-121.75h140.27z" stroke-width="1.0005"/><g transform="matrix(1.0064 0 0 1.0008 -.89596 .13464)" fill="#fff" stroke="#fff" stroke-linecap="round" stroke-linejoin="round"><path transform="matrix(.26467 0 0 .26467 -.033333 0)" d="m490.18 201.76-6.4219 257.68c-4e-5 4.929 32.492 4.929 32.492 0l-6.0449-257.68z" fill-rule="evenodd" stroke-width="3.7783"/><path transform="matrix(.26467 0 0 .26467 -.033333 0)" d="m417.25 89.424s-23.809 30.567-25.373 76.195c1.5644 45.628 25.373 76.195 25.373 76.195s35.114-84.994 72.922-40.051h20.025c37.808-44.944 72.922 40.051 72.922 40.051s23.809-30.567 25.373-76.195c-1.5644-45.628-25.373-76.195-25.373-76.195s-35.114 84.994-72.922 40.051c-4.6268-6.686-15.399-6.686-20.025 0-37.808 44.944-72.922-40.051-72.922-40.051z" stroke-width="5"/></g></svg>
