<?xml version="1.0" encoding="UTF-8"?>
<svg id="Layer_1" xmlns="http://www.w3.org/2000/svg" version="1.1" viewBox="0 0 2048 2048">
  <!-- Generator: Adobe Illustrator 30.2.1, SVG Export Plug-In . SVG Version: 2.1.1 Build 1)  -->
  <defs>
    <style>
      .st0 {
        fill: #fed306;
      }

      .st1 {
        fill: #50594f;
      }

      .st2 {
        fill: #735ca8;
      }

      .st3 {
        stroke: #000;
        stroke-miterlimit: 10;
        stroke-width: 26px;
      }

      .st3, .st4 {
        fill: #fff;
      }

      .st5 {
        fill: #c263a7;
      }

      .st6 {
        fill: #659e5e;
      }

      .st7 {
        fill: #995aa4;
      }

      .st8 {
        fill: #bae1ff;
      }

      .st9 {
        fill: #ffb3ba;
      }

      .st10 {
        fill: #f15722;
      }

      .st11 {
        fill: #49b863;
      }

      .st12 {
        fill: #8ec74e;
      }

      .st13 {
        fill: #f78e1e;
      }

      .st14 {
        fill: #619b5a;
      }

      .st15 {
        fill: #5f745c;
      }

      .st16 {
        fill: #3fbced;
      }
    </style>
  </defs>
  <path d="M1785.98,97.76c.46,10.14,1.16,20.21,2.09,30.22.04,3.34.07,6.65.07,10l1.14,3.18-1.04,1564.05c0,5.26-4.05,8.35-7.01,10.67-5.14,4.03-10.38-1.54-14.95-.42-12.74,3.12-24.4,5.73-36.29,5.9-55.58,1.01-111.01.96-166.28-.17l-3.54-.04c-73.24-.66-146.59-1.27-220.04-1.82l-4.12-.08c-8.8-.8-17.49-2.12-26.07-3.98-3.78-2.27-25.5-9.02-25.5-22.57V160.82c8.15-29.45.17-32.76,4.68-64.08,1.93-13.39.55-28.63,9.7-40.16,11.14-14.04,37.67-13.7,55.68-13.67l131.17.24c14.23.03,26.21,1.33,40.46-.95,7.82-1.25,67.15-2.23,77.21-.91,9.79,1.29,17.42-.2,26.89-.61,30.65-1.34,60.86-.9,91.59-.16,7.66.18,14.21,1.99,22.07.37,20.59-4.25,37.17,10.8,38.79,30.56.78,9.54,3.33,17.63,3.3,26.3Z"/>
  <g>
    <path class="st8" d="M1560.17,1721.15l-217.77.05c-1.65,0-2.89-.9-2.27-1.87l217.59-.15c1.68.45,3.29.82,2.45,1.97Z"/>
    <path class="st8" d="M1730,1721.36l-163.81,2.25c-1.45-1.24-3.33-1.26-2.48-2.43l166.28.17Z"/>
    <path class="st8" d="M1336.01,1719.24c-9.04-.18-18.22.72-26.07-3.98,8.6,1.04,18.18.57,26.07,3.98Z"/>
    <g>
      <path class="st8" d="M1788.25,1705.21l-.1-1567.23c.4-.29,2.29.6,2.29,2.73l-2.18,1564.5Z"/>
      <path class="st8" d="M1788.07,127.98c-1.45.21-2.2-1.81-2.19-3.89l.1-26.32c1.15-.91,1.74.8,1.75,2.26l.33,27.96Z"/>
      <path class="st8" d="M1633.89,1694.25l-147.12-2.05-150.74-1.03c-7.4-.05-13.89-1.92-22.16-3.56l-.15-1524.64c-3.29-30.87-1.49-60.37.64-91.12l210.49-.93,241.41-1.35c-5.47,33.38-6.2,65.04-6.21,98.92l-.1,1530.42c-16.19-2.24-31.74-3.84-47.93-3.98l-78.12-.68Z"/>
    </g>
  </g>
  <path d="M1034.17,1726.24c-27.55,1.62-56.75,1.61-84.34,0l-47.83-.32c-8.15-.05-15.67-1.02-24.05-2.03l-19.7-2.38-18.25-1.58-44.25-4.95c-10.93-1.22-21.22-3.79-32.04-6.23-6.19-1.4-21.12.28-21.12-11.24l-.11-1297.35,7.62-34.87c2.75-12.6,18.42-9.94,28.41-11.08,17.97-2.05,35.03-3.27,53.6-3.96l35.11-1.29,181.73.26c20.46.03,39.64-.7,59.93.93l82.97,1.18c7.01.1,15.94,5.93,15.94,14.2l.04,1240.02c6.92,13.59,6.65,25.14,4.8,38.75-1.27,9.31-.37,18.46-2.2,27.97-2.42,12.53,2.69,26.58-2,38.77-3.32,8.61-16.09,9.94-24.13,9.21-19-1.71-61.62,5.38-84.32,5.53l-65.8.46Z"/>
  <path class="st14" d="M1034.17,1726.24c.81,1.13-.85,1.57-2.29,1.91h-79.76c-1.43-.33-3.1-.78-2.29-1.91h84.34Z"/>
  <path class="st9" d="M1164.84,1692.77l-64.21,4.48c-65.43,4.56-130.25,2.2-195.97,0-46.98-1.58-85.83-10.55-133.05-11.7l-.08-1263.75-3.01-37.77c35.55-4.62,69.23-4.46,104.36-6.37l168.31.34,139.12,1.45.1,1248.03c0,8.46,6.81,14.47,3.39,22.96l-2.79,41.44c-1.39,5.46-11.56.58-16.16.9Z"/>
  <path d="M652.06,894.53l1.78,14.05c-1.29,6.87,2.03,13.21,2.16,19.99,1.06,259.93,1.46,519.98,1.22,780.15-.86,4.94-3.25,9.44-7.17,13.51-5.47,22.92-48.16,9.99-62.05,11.66-92.87-2.76-186.08-3.67-279.62-2.71-15.56,6.46-25.8,4.12-30.73-7,0-2.09-3.09-3.87.9-7.75,2.3-2.23,7.39-5.59,7.39-10.93l.26-779.97c0-16.19,10.55-30.75,25.97-30.88l113.56-.96c13.25-.11,25.05-.58,38.38.5,6.55.53,14.16-2.48,21.08-2.68l61.27-1.75c6.74-.19,12.76-.86,19.6-1.03l34.87-.86c9.26-.23,19.09-4.35,28.39-2.07,5.42,1.33,8.38-1.16,12.79-1.86,5.42-.87,7.82,7.42,9.95,10.57Z"/>
  <path class="st6" d="M650.05,1722.23c.92-3.86,2.6-6.42,5.94-11.03v-782.63c4.98,258.88.06,518.81,2.47,779.15.07,7.44-3.96,11.99-8.41,14.51Z"/>
  <path class="st1" d="M588,1733.89c-12.79,1.54-25.37-.92-39.27-.97l-240.36-.79c-7.13-.02-13,4.62-19.31,3.49-7.47-1.34-11.43-5.17-11.41-11.45,3.97,3.16,6.26,9.25,12.49,9.61s11.61-3.57,18.22-3.57l233.63.18c12.57,0,23.39,3.59,36.25,1.58,3.33-.52,8.21-.3,9.78,1.92Z"/>
  <path class="st15" d="M653.84,908.58c-3.84-3.38-1.17-9.41-1.78-14.05,2.65,3.94,2.7,9.21,1.78,14.05Z"/>
  <path class="st4" d="M497.86,1703.33l-170.56-.51c-4.76-.01-9.24,3.12-13.22-1.36l-.17-778.43,155.08-1.45,50.66-1.92,109.76-5.35c.68,5.78-1.3,8.8-1.3,14.79l-.09,760.62c0,7.68-4.04,12.11-6.48,18.78-41.77-4-81.48-5.04-123.68-5.17Z"/>
  <g>
    <rect class="st3" x="293.64" y="1812.82" width="1481.49" height="187.79"/>
    <rect class="st10" x="306.33" y="1825.45" width="162.38" height="162.38"/>
    <rect class="st13" x="468.71" y="1825.45" width="162.38" height="162.38"/>
    <rect class="st0" x="631.08" y="1825.53" width="162.38" height="162.38"/>
    <rect class="st12" x="793.46" y="1825.53" width="162.38" height="162.38"/>
    <rect class="st11" x="955.84" y="1825.53" width="162.38" height="162.38"/>
    <rect class="st16" x="1115.81" y="1825.45" width="162.38" height="162.38"/>
    <rect class="st2" x="1275.91" y="1825.45" width="162.38" height="162.38"/>
    <rect class="st7" x="1438.29" y="1825.53" width="162.38" height="162.38"/>
    <rect class="st5" x="1600.67" y="1825.53" width="162.38" height="162.38"/>
  </g>
</svg>