<?xml version="1.0" encoding="UTF-8"?>
<svg id="Layer_1" xmlns="http://www.w3.org/2000/svg" version="1.1" viewBox="0 0 342.25 65.72">
  <!-- Generator: Adobe Illustrator 30.0.0, SVG Export Plug-In . SVG Version: 2.1.1 Build 123)  -->
  <polygon points="229.32 8.35 229.32 28.35 219.31 28.36 219.32 18.35 199.32 18.35 199.32 48.35 209.32 48.36 209.32 38.35 229.32 38.35 229.32 58.35 189.32 58.35 189.32 8.35 229.32 8.35"/>
  <polygon points="169.32 8.35 169.32 48.35 179.32 48.35 179.32 58.35 159.32 58.35 159.32 8.35 169.32 8.35"/>
  <polygon points="269.32 18.35 269.32 28.35 249.32 28.35 249.32 58.35 239.32 58.35 239.32 18.35 269.32 18.35"/>
  <rect x="49.32" y="28.35" width="10" height="30"/>
  <rect x="279.32" y="28.35" width="10" height="30"/>
  <path d="M79.32,28.35c-3.32-.06-6.68.04-10.01,0v-10.01s10.01,0,10.01,0c.04,3.32-.06,6.68,0,10.01,3.32.06,6.68.06,10,0,.05-3.32-.04-6.68,0-10.01h10.01s0,10.01,0,10.01c-3.32.04-6.68-.06-10.01,0-.11,6.63-.11,13.37,0,20,3.32.06,6.68-.04,10.01,0v10.01s-10.01,0-10.01,0c-.04-3.32.06-6.68,0-10.01-3.32-.06-6.68-.06-10,0-.05,3.32.04,6.68,0,10.01h-10.01s0-10.01,0-10.01c3.32-.04,6.68.06,10.01,0,.11-6.63.11-13.37,0-20Z"/>
  <rect x="49.3" y="8.34" width="10.03" height="10.03"/>
  <rect x="279.3" y="8.34" width="10.03" height="10.03"/>
  <g>
    <path d="M139.32,58.35v-10.01c-6.65-.07-13.35.12-20,0v10h20Z"/>
    <path d="M139.32,18.35v-10h-20v10c6.63-.11,13.37-.11,20,0Z"/>
    <path d="M149.32,38.35v-20c-3.32-.04-6.68.06-10,0v10h-20v-10c-3.32.06-6.68-.04-10,0v30c3.32.04,6.68-.06,10,0v-10h30Z"/>
  </g>
  <path d="M9.32,8.35v50h10v-20h20V8.35H9.32ZM29.34,28.37h-10.03v-10.04h10.03v10.04Z"/>
  <path d="M319.32,8.35v20h-20v30h30V8.35h-10ZM319.34,48.37h-10.04v-10.04h10.04v10.04Z"/>
</svg>