<?xml version="1.0" encoding="UTF-8"?>
<svg id="Layer_1" data-name="Layer 1" xmlns="http://www.w3.org/2000/svg" viewBox="0 0 1629.89 1413.85">
  <defs>
    <style>
      .cls-1 {
        fill: #985aa3;
      }

      .cls-2 {
        fill: #3fbbec;
      }

      .cls-3 {
        fill: #292929;
      }

      .cls-4 {
        fill: #f68d1e;
      }

      .cls-5 {
        fill: #49b763;
      }

      .cls-6 {
        fill: #fdd206;
      }

      .cls-7 {
        fill: #bf62a4;
      }

      .cls-8 {
        fill: #995aa3;
      }

      .cls-9 {
        fill: #c062a5;
      }

      .cls-10 {
        fill: #735ca7;
      }

      .cls-11 {
        fill: #f05722;
      }

      .cls-12 {
        fill: #c063a5;
      }

      .cls-13 {
        fill: #8dc64e;
      }
    </style>
  </defs>
  <g>
    <path d="M335.63,1308.8l1.49,36.16c.87,21.12,2.04,41.52.4,62.35-.18,2.29,1.24,4.54-1.29,6.52l-300.09-.17c-7.67,0-13.76-.91-20.84-.54-2.3.12-4.75-2.28-7.77-.14-.71.5-2.87-.01-3.52-.5-.81-.6-2.32-1.76-2.33-3.82l-.39-102.36-.18-1080.18,1.2-96.4c.08-6.42-.93-12.54.65-18.66,1.16-4.5-1.81-7.48-1.85-11.23L.47,24.04c-.05-5.58-1.23-10.8.37-16.13C2.28,3.08,6.02,1.03,10.83.89L41.17.05,332.67,0c1.53,0,2.54,1.83,2.39,2.86-.72,5.08,1.46,9.38,1.47,14.15l.05,12.94.17,69.51c0,2.55-2.09,3.85-3.3,4.52-2.05,1.13-4-2.06-5.52-1.65-2.29.61-3.58.92-6.18.92l-174.6-.05c-3.69,0-6.4,1.17-9.91.32-4.31-1.04-8.58-1.13-12.66-1.35.67,6.37,1.88,11.97,1.91,18.35l.32,64.65v1122.46c-.01,1.49.55,1.59.81,1.76.69.46,1.34-.74,2.19-.74l205.81.13Z"/>
    <rect class="cls-3" x="9.94" y="179.91" width="1" height="1115"/>
  </g>
  <g>
    <path d="M859.81,1207.4l-149.79,2.48c-6.97-.35-13.16-5.61-13.02-13.16l7.66-397.72-362.27.06c-6.62,0-11.07,1.69-15.98-3.12-4.84-4.75-3.89-9.65-3.86-16.4l.47-116.54c-.14-8.29,5.73-14.07,14.1-14.07l372.76-.07.07-403.74c0-8.44,5.79-14.16,14.08-14.2h148.84c7.51.04,14.02,5.22,14.02,13.2l.12,407.74,410.72.03c8.82,0,15.16,5.03,15.21,14.15l.02,130.78c-.31,8.92-6.77,13.14-15.25,13.14l-409.92.04-6.96,386.64c-.1,5.35-3.84,8.17-6.37,10.32-4.73,4.02-9.43.36-14.64.44Z"/>
    <g>
      <path class="cls-8" d="M854.21,1111.91l-1.02,59c-6.17-1.37-12.59-1.36-19.26,0l-1.86-1.87c-1.39,1.1-3.43,1.3-6.13.61-1.43.57-2.87,1.11-4.35,1.49s-2.91.73-4.37.79c-27,1.1-56.35-.91-83.08-4.9-1.44-.21-2.84-.74-4.25-1.29s-2.79-1.25-4.14-1.98l1.47-76.02,3.71-.68c41.02,6.28,82.24,7.79,123.55,3.02.16,7.36.07,14.64-.27,21.82Z"/>
      <path class="cls-1" d="M858.7,287.2l.07,75.89-3.94.78c-37.55-4.11-75.24-3.53-112.72,1.05l-3.95-.73.03-75.97,4.14-1.87c36.91-5.69,75.2-6.01,112.19-.94l4.17,1.8Z"/>
      <path class="cls-5" d="M857.98,904.74l-1.33,67.27c-1.7,1.34-3.53,2.62-5.65,3.17-12.75,3.28-29.45,4.2-42.74,4.51-25.58.6-51.2-2.58-75.8-9.64-.08,3.48-1.19,5.11-3.32,4.87-.75-2.5.24-5.08.3-8.07l1.42-67.72,5.8.09c37.02,13.7,77.45,15.51,115.53,5.1l5.79.42Z"/>
      <path class="cls-5" d="M858.71,482.6l.02,67.01-5.71.37c-35.79-10.19-73.82-9.2-109.19,2.24l-5.72-.18.05-67.9c.85-.74,1.73-1.44,2.68-2.01s1.86-1.1,2.84-1.33c34.42-8.19,74.88-9.07,109.46-1.48.99.22,1.92.74,2.86,1.3s1.84,1.26,2.71,1.99Z"/>
      <path class="cls-1" d="M1242.76,680.08c.65,1.29,1.25,2.59,1.72,3.95s.91,2.67,1.02,4.02c2.39,28.22,2.4,57.68-.79,85.83-.15,1.35-.62,2.66-1.11,3.99s-1.13,2.63-1.8,3.91l-75.63-.03-.8-3.92c3.92-30.43,2.44-59.56.72-89.99-.15-2.62.45-5.2,1.11-7.72l75.55-.04Z"/>
      <path class="cls-10" d="M855.61,1031.79l-.76,79.74c0,.42-.4.5-.64.38l-.3-20.48c-42.82,6.22-84.97,4.1-126.68-3.68l.96-57.8c.06-3.66-1.08-19.83.53-20.04,3.36,3.43,2.64,11.93,1.29,16.31,40.38,8.94,81.11,9.79,122.08,4.77l3.52.8Z"/>
      <path class="cls-2" d="M856.65,972l-1.04,59.79c-42.1,6.82-85.19,5.97-126.78-4.38.33-6.61-.17-12.03-.11-17.49l.42-35c1.4-1.89.68-4.26.8-7.68,41.34,12.39,84.66,13.65,126.71,4.77Z"/>
      <path class="cls-10" d="M858.77,363.09l.03,59.64c-2.35.57-4.76,1.07-7.19.83-36-3.54-70.33-6.44-106.28,1.26-2.42.29-4.84-.16-7.2-.68l.03-59.95c40.04-6.45,80.48-7.11,120.61-1.09Z"/>
      <path class="cls-2" d="M858.81,422.73l-.1,59.87c-39.79-9.36-80.92-8.17-120.56,1.54v-60.01c39.91-7.91,80.57-8.54,120.66-1.4Z"/>
      <path class="cls-1" d="M437.25,677.17l.95,3.6c-2.79,27.96-1.54,54.92-.24,82.86.11,2.43-.54,4.81-1.23,7.12l-75.54-.05c-.62-1.19-1.19-2.39-1.63-3.65s-.84-2.46-.94-3.7c-2.04-25.76-2.17-53.35.64-79.03.14-1.24.58-2.45,1.05-3.68s1.09-2.43,1.75-3.6l75.18.12Z"/>
      <path class="cls-5" d="M1048.73,680.1c1.27,1.85,2.6,3.8,3.03,6.04,5.02,25.78,4.4,64.09-1.43,89.7-.51,2.22-1.9,4.13-3.22,5.94l-66.93-.03-.5-5.62c7.84-29.48,8.74-60.61,1.89-90.37l.68-5.6,66.48-.05Z"/>
      <path class="cls-5" d="M622.74,677.05l.59,5.9c-6.31,26.84-6.76,54.86-1.4,81.9l-.8,5.88h-66.01c-1.28-1.8-2.49-3.73-2.95-5.93-4.45-21.25-3.91-60.62.95-81.8.5-2.19,1.75-4.1,3.05-5.89l66.57-.07Z"/>
      <path class="cls-10" d="M1167.21,680.11c4.33,33.76,3.86,67.95-1.03,101.62l-59.45-.02c-.59-2.29-1.15-4.65-.93-7.03,2.79-30.83,5.42-60.03,1.27-91.03l.84-3.55h59.3Z"/>
      <path class="cls-2" d="M1107.9,680.11c5.05,33.78,4.39,67.94-1.18,101.61l-59.61.06c7.1-33.61,7.66-67.87,1.62-101.68h59.17Z"/>
      <path class="cls-10" d="M496.94,676.91l.82,3.52c-3.91,28.3-2.36,55.14-.57,83.42.15,2.36-.46,4.68-1.11,6.92l-59.35-.02c-3.76-31.16-3.01-62.43.52-93.59l59.69-.25Z"/>
      <path class="cls-13" d="M858.66,859.11l-.68,45.62c-42.02,12.72-86.38,10.73-127.12-5.61l1.03-46.3,5,.29c36.37,17.93,78.87,20.88,116.77,5.89l5.01.1Z"/>
      <path class="cls-2" d="M556.17,677.12c-5.75,31.01-6.29,62.51-1.05,93.63l-59.04.03c-4.43-31.18-3.93-62.75.86-93.86l59.23.2Z"/>
      <path class="cls-13" d="M858.72,549.61l.04,45.03-5.16.1c-35.69-13.6-75.36-12.33-110.28,3.07l-5.16.16-.07-45.92c39.01-13.79,81.14-14.92,120.62-2.44Z"/>
      <path class="cls-6" d="M859.18,829.91c.38,9.72-.38,19.51-.52,29.2-41.21,17.78-87.21,14.53-126.77-6.28l.19-23.92c.42-6.62.62-13.29.61-20-.09-.97.15-1.95.13-2.91,35.75,29.85,85.59,34.78,125.79,9.25l.57,14.66Z"/>
      <path class="cls-6" d="M858.76,594.63l-.04,43.94c-37.75-23.58-84.92-21.4-120.57,5.18l.02-45.8c38.26-18.2,81.42-19.6,120.59-3.33Z"/>
      <path class="cls-13" d="M982.25,680.15c8.73,33.43,7.67,68.48-2.07,101.6l-44.96-.02-.17-5.15c10.7-29.38,11.61-61.41,2.66-91.36l.48-5.13,44.07.07Z"/>
      <path class="cls-12" d="M1241.8,781.77c4.15-33.77,4.35-67.85.96-101.7l42.19-.1v101.87s-43.15-.08-43.15-.08Z"/>
      <path class="cls-6" d="M938.19,680.08c11.1,33.33,10.09,69.03-2.97,101.65l-43.33-.03c18.24-31.45,20.06-68.8,4.18-101.57l42.12-.04Z"/>
      <path class="cls-13" d="M667.12,677.09l.4,5.18c-8.5,27.05-9.24,55.92-1.82,83.31l-.6,5.16h-43.96c-7.04-31.07-6.53-62.9,1.61-93.69l44.38.04Z"/>
      <path class="cls-6" d="M709.82,677.12c-15.32,29.42-16.26,63.22-3.1,93.65l-41.62-.03c-9.39-30.87-8.55-63.19,2.02-93.65l42.7.03Z"/>
      <path class="cls-12" d="M858.7,287.2c-40.21-4.62-80.38-4.28-120.51,1.01l-.17-29.3h120.83s-.16,28.29-.16,28.29Z"/>
      <path class="cls-9" d="M825.94,1169.66c2.58.57,4.63.36,6.13-.61,7.02-.34,22.39-3.61,21.11,1.87-.04,2.49.71,4.94-.4,8.07-4.48.26-8.77.32-12.84.2-15.23-.2-22.84-.3-22.84-.3,1.07.24.69.59-1.16,1.03l-24,.25c-7.63.01-15.3.23-23,.64l-43.51.78c-.71-6.27.22-12.08.33-17.81,33.22,5.21,66.57,7.28,100.18,5.88Z"/>
      <path class="cls-12" d="M362.06,677.05c-3.7,31.12-3.46,62.45-.87,93.66-3.22,0-6.48.68-10.26.06v-93.71c4.08-.5,7.61,0,11.13,0Z"/>
      <path class="cls-7" d="M839.94,1179.18c-7.77,1.47-15.96.65-24,.73-.09-.75-.16-1.79.54-2,1.02-.32,1.91.64,2.87.67l20.59.6Z"/>
      <path class="cls-8" d="M791.94,1180.16c.17.57-.41.69-1.09.68l-21.91-.05c-.08-1.79,20.76-.61,23-.64Z"/>
      <path class="cls-4" d="M732.08,828.91l-.02-18.91c0-.68,0-1.27.63-1.09.03.28,1.05,21.73-.61,20Z"/>
      <g>
        <path class="cls-4" d="M858.72,638.58l.39,27.39c.12,8.28,7.82,13.89,15.7,13.96l21.26.19c.74.38,1.46.79,2.1,1.31,7.54,6.21,11,38.57,10.64,49.06s-6.45,44.23-14.73,50.06c-.67.47-1.42.83-2.19,1.15l-17.07.18c-6.8.07-13.73,4.13-14.49,11.23-1.21,11.35-.18,22.38-.4,33.85-.02,1.23.3,2.76-.75,2.95l-2.04-1.05-.39-10c-38.53,22.82-87.07,18.8-122.11-8.81l-1.83-4.04c-.16-5.64-.51-11.52.7-17.47.96-4.73.26-9.22-2.8-12.86-2.61-3.1-6.86-4.71-11.75-4.77l-12.25-.13c-.73-.42-1.43-.86-2.04-1.41-6.57-5.92-9.39-36.15-9.09-45.85s5.05-39.64,12.09-45.12c.65-.5,1.38-.9,2.14-1.26l13.16-.22c8.73-.14,14.87-6.22,14.97-14.95l.2-18.2c.45-1.43.96-2.99,2.13-3.99,13.5-11.48,39.73-18.63,57.27-19.4,17.57-.77,44.27,4.07,58.7,14.41,1.26.9,1.9,2.41,2.46,3.81Z"/>
        <circle class="cls-11" cx="802.19" cy="726.98" r="54.01"/>
      </g>
      <path class="cls-7" d="M832.07,1169.04c.47,1.86-1.39,2.07-2.65,1.97-1.35-.1-2.58-.44-3.48-1.36,1.79-1.41,4.07-.52,6.13-.61Z"/>
    </g>
  </g>
  <g>
    <path d="M1292.34,1406.16c-1.72-20.52-.37-40.5.4-61.2l1.34-36.13,201.65-.11c2.76,0,4.39-.43,7.32.75l.04-1177.25c0-5.4,1.29-9.45-.16-14.24,1.43-5.36,1.58-10.37,2.36-15.8-4.11.23-8.33.27-12.66,1.34-3.23.81-5.7-.29-9.07-.29l-179-.05c-1.59,0-2.7-2.48-4.51,0-.76,1.04-3.19,1.02-4.28.47-.91-.45-2.54-1.6-2.54-3.44l-.16-84.17c0-1.86,1.73-5.15-.02-6.18-1.9-1.11-4.84-2.11-4.82-4.47.01-1.65,1.33-5.31,4.23-5.31l296.24-.05,30.34.85c5.19.15,8.96,2.59,10.24,7.83s.17,10.02.13,15.33l-.66,75.81c-.03,3.75-3,6.73-1.85,11.23,1.58,6.12.57,12.25.65,18.66l1.2,96.4-.17,1080.18-.36,101.43c0,1.96-1.05,3.52-1.72,4.29s-3.14,1.6-4.16.92c-3.21-2.15-5.77.4-8.19.23-7.06-.5-12.93.48-20.42.49l-299.54.18c-3.5-1.57-1.62-4.88-1.86-7.69Z"/>
    <rect class="cls-3" x="1618.94" y="179.91" width="1" height="1115"/>
  </g>
</svg>